<?xml version="1.0" encoding="UTF-8" standalone="no"?>
<!-- Created with Inkscape (http://www.inkscape.org/) -->

<svg
   xmlns:dc="http://purl.org/dc/elements/1.1/"
   xmlns:cc="http://creativecommons.org/ns#"
   xmlns:rdf="http://www.w3.org/1999/02/22-rdf-syntax-ns#"
   xmlns:svg="http://www.w3.org/2000/svg"
   xmlns="http://www.w3.org/2000/svg"
   xmlns:sodipodi="http://sodipodi.sourceforge.net/DTD/sodipodi-0.dtd"
   xmlns:inkscape="http://www.inkscape.org/namespaces/inkscape"
   width="13.229167mm"
   height="13.229167mm"
   viewBox="0 0 13.229167 13.229167"
   version="1.1"
   id="svg8"
   inkscape:version="0.92.5 (2060ec1f9f, 2020-04-08)"
   sodipodi:docname="book.svg">
  <defs
     id="defs2" />
  <sodipodi:namedview
     id="base"
     pagecolor="#ffffff"
     bordercolor="#666666"
     borderopacity="1.0"
     inkscape:pageopacity="0.0"
     inkscape:pageshadow="2"
     inkscape:zoom="0.98994949"
     inkscape:cx="-140.88926"
     inkscape:cy="30.635546"
     inkscape:document-units="mm"
     inkscape:current-layer="layer1"
     showgrid="false"
     inkscape:object-nodes="false"
     inkscape:window-width="1366"
     inkscape:window-height="715"
     inkscape:window-x="-8"
     inkscape:window-y="-8"
     inkscape:window-maximized="1" />
  <metadata
     id="metadata5">
    <rdf:RDF>
      <cc:Work
         rdf:about="">
        <dc:format>image/svg+xml</dc:format>
        <dc:type
           rdf:resource="http://purl.org/dc/dcmitype/StillImage" />
        <dc:title></dc:title>
      </cc:Work>
    </rdf:RDF>
  </metadata>
  <g
     inkscape:label="Layer 1"
     inkscape:groupmode="layer"
     id="layer1"
     transform="translate(-334.14981,-172.65746)">
    <g
       id="g4554"
       transform="matrix(0.28885396,0,0,0.28885396,313.58253,128.96833)">
      <path
         id="path510"
         d="m 103.51944,158.35372 0.1404,27.5329 c -7.495116,1.47602 -15.739886,2.36996 -23.238178,3.84598 -1.804459,-0.78316 -3.358092,-1.91417 -4.40549,-3.74226 l -0.836789,-27.63662 22.414796,-1.98861 -0.06668,0.81386 5.991931,1.17475"
         style="fill:#e12227;fill-opacity:1;fill-rule:evenodd;stroke:none;stroke-width:0.03527778"
         inkscape:connector-curvature="0" />
      <path
         id="path512"
         d="m 79.838873,160.78366 23.680567,-2.42994 -5.991936,-1.17475 0.08326,-0.81386 -22.414796,2.07857 c 1.074561,1.64077 2.75837,2.19287 4.642909,2.33998 v 0"
         style="fill:#dfd2bd;fill-opacity:1;fill-rule:evenodd;stroke:none;stroke-width:0.03527778"
         inkscape:connector-curvature="0" />
      <path
         id="path514"
         d="m 83.74624,189.12018 c -1.122187,0.19403 -2.229909,0.39793 -3.324578,0.61242 -1.804459,-0.78316 -3.358092,-1.91417 -4.40549,-3.74226 l -0.836789,-27.63662 3.983215,-0.35489 0.0134,0.20038 -3.903133,0.35842 c 1.145116,0.94086 2.712155,2.04188 3.963458,2.14277 l 3.729567,-0.23812 0.780345,28.6579"
         style="fill:#39383c;fill-opacity:1;fill-rule:evenodd;stroke:none;stroke-width:0.03527778"
         inkscape:connector-curvature="0" />
      <path
         id="path4527"
         d="m 80.471756,189.72272 c -0.140053,-0.0596 -0.277636,-0.12347 -0.414514,-0.1905 l -0.964847,-28.84911 v 0 h 0.0039 l 0.0032,0.004 h 0.0032 0.0035 0.0035 v 0 h 0.0028 0.0039 0.0032 0.0028 l 0.03034,0.004 v 0.003 h 0.0035 l 0.03669,0.004 h 0.0035 v 0 h 0.0032 0.01023 v 0 h 0.0032 c 0.01693,0.004 0.03669,0.004 0.05715,0.007 l 0.227542,-0.0131 z"
         style="fill:#201d1d;fill-opacity:1;fill-rule:evenodd;stroke:none;stroke-width:0.03527778"
         inkscape:connector-curvature="0" />
      <path
         id="path516"
         d="m 83.414276,189.19074 -0.733425,-28.70836 0.285044,-0.0201 0.829381,28.66107 c -0.126648,0.0236 -0.254,0.0473 -0.381,0.0674 v 0"
         style="fill:#201d1d;fill-opacity:1;fill-rule:evenodd;stroke:none;stroke-width:0.03527778"
         inkscape:connector-curvature="0" />
      <path
         id="path518"
         d="m 75.397047,158.58479 c -0.1143,0.01 -0.210961,-0.0741 -0.220839,-0.1845 -0.01058,-0.1136 0.07338,-0.21061 0.184151,-0.22084 l 22.377754,-1.98543 c 0.113947,-0.009 0.210608,0.0737 0.221191,0.1845 0.0099,0.11042 -0.07373,0.21096 -0.184502,0.22084 l -22.377755,1.98543"
         style="fill:#e12227;fill-opacity:1;fill-rule:nonzero;stroke:none;stroke-width:0.03527778"
         inkscape:connector-curvature="0" />
      <path
         id="path520"
         d="m 81.409087,157.80127 -0.08361,-0.15063 -5.965119,0.52881 c -0.110773,0.0102 -0.194734,0.10724 -0.184151,0.22084 0,0.0134 0.0032,0.0272 0.0067,0.037 0.01658,0.0497 0.04692,0.0903 0.08996,0.11748 0,0 0,0 0,0.003 0.03669,0.0205 0.08079,0.0303 0.124177,0.0272 l 6.082242,-0.5394 -0.03351,-0.18062 -0.03669,-0.0635"
         style="fill:#39383c;fill-opacity:1;fill-rule:evenodd;stroke:none;stroke-width:0.03527778"
         inkscape:connector-curvature="0" />
      <path
         id="path522"
         d="m 85.580331,160.86091 3.859037,-0.39863 0.275166,8.72031 -2.166055,-2.407 -1.71062,2.407 -0.257528,-8.32168"
         style="fill:#99242b;fill-opacity:1;fill-rule:evenodd;stroke:none;stroke-width:0.03527778"
         inkscape:connector-curvature="0" />
      <path
         id="path524"
         d="m 85.580331,160.19452 3.859037,-0.39547 0.275166,8.91152 -2.166055,-2.40665 -1.71062,2.40665 -0.257528,-8.51605"
         style="fill:#323032;fill-opacity:1;fill-rule:evenodd;stroke:none;stroke-width:0.03527778"
         inkscape:connector-curvature="0" />
      <path
         id="path526"
         d="m 112.23587,160.47603 0.14464,27.53325 c -7.49865,1.47602 -15.74377,2.36996 -23.238887,3.84563 -1.807633,-0.78281 -3.360914,-1.91417 -4.408664,-3.73909 l -0.833261,-27.63979 22.410912,-1.98543 -0.0663,0.81068 5.99158,1.17475"
         style="fill:#5390c5;fill-opacity:1;fill-rule:evenodd;stroke:none;stroke-width:0.03527778"
         inkscape:connector-curvature="0" />
      <path
         id="path528"
         d="m 88.556012,162.90949 23.679858,-2.43346 -5.99158,-1.17475 0.0836,-0.81068 -22.411269,2.07574 c 1.071034,1.6436 2.755195,2.19252 4.639381,2.34315 v 0"
         style="fill:#dfd2bd;fill-opacity:1;fill-rule:evenodd;stroke:none;stroke-width:0.03527778"
         inkscape:connector-curvature="0" />
      <path
         id="path530"
         d="m 92.462673,191.24249 c -1.117952,0.19438 -2.229202,0.39829 -3.32105,0.61242 -1.807633,-0.78281 -3.360914,-1.91417 -4.408664,-3.73909 l -0.833261,-27.63979 3.979686,-0.35524 0.01341,0.20108 -3.902428,0.35807 c 1.144411,0.9405 2.713919,2.04188 3.966281,2.14312 l 3.726039,-0.23495 0.779991,28.65438"
         style="fill:#39383c;fill-opacity:1;fill-rule:evenodd;stroke:none;stroke-width:0.03527778"
         inkscape:connector-curvature="0" />
      <path
         id="path4509"
         d="m 89.188543,191.84504 c -0.140406,-0.06 -0.277636,-0.12348 -0.411692,-0.18733 l -0.966964,-28.85193 h 0.0032 l 0.0035,0.004 v 0 h 0.0025 0.0035 0.0032 0.0039 0.0032 v 0 h 0.0035 l 0.0032,0.003 0.02999,0.004 v 0 h 0.0035 l 0.03669,0.003 h 0.0035 0.0035 v 0 h 0.0099 v 0 h 0.0035 c 0.02011,0.004 0.03634,0.006 0.0568,0.006 l 0.227541,-0.013 z"
         style="fill:#201d1d;fill-opacity:1;fill-rule:evenodd;stroke:none;stroke-width:0.03527778"
         inkscape:connector-curvature="0" />
      <path
         id="path532"
         d="m 92.131415,191.31269 -0.733072,-28.70835 0.284339,-0.0162 0.830086,28.66144 c -0.127353,0.0197 -0.254353,0.0437 -0.381353,0.0631 v 0"
         style="fill:#201d1d;fill-opacity:1;fill-rule:evenodd;stroke:none;stroke-width:0.03527778"
         inkscape:connector-curvature="0" />
      <path
         id="path534"
         d="m 84.113834,160.70675 c -0.110419,0.0102 -0.210961,-0.0737 -0.221192,-0.18415 -0.0099,-0.11359 0.07373,-0.21096 0.188031,-0.22084 l 22.377397,-1.98508 c 0.11078,-0.01 0.21132,0.0734 0.21767,0.1845 0.0102,0.1136 -0.0702,0.21026 -0.1838,0.22084 l -22.378106,1.98473"
         style="fill:#5390c5;fill-opacity:1;fill-rule:nonzero;stroke:none;stroke-width:0.03527778"
         inkscape:connector-curvature="0" />
      <path
         id="path536"
         d="m 90.126226,159.92358 -0.08396,-0.15028 -5.961592,0.52846 c -0.1143,0.01 -0.197908,0.10725 -0.188031,0.22084 0.0035,0.0134 0.0035,0.0272 0.01023,0.0402 0.01376,0.0466 0.04339,0.0871 0.08749,0.1143 0,0 0,0.003 0.0028,0.003 0.03351,0.0205 0.07726,0.0303 0.12065,0.0268 l 6.082242,-0.53904 -0.03351,-0.18063 -0.03634,-0.0635"
         style="fill:#39383c;fill-opacity:1;fill-rule:evenodd;stroke:none;stroke-width:0.03527778"
         inkscape:connector-curvature="0" />
      <path
         id="path538"
         d="m 94.300293,162.98358 3.859742,-0.39547 0.270933,8.71679 -2.166055,-2.40347 -1.710267,2.40347 -0.254353,-8.32132"
         style="fill:#48769e;fill-opacity:1;fill-rule:evenodd;stroke:none;stroke-width:0.03527778"
         inkscape:connector-curvature="0" />
      <path
         id="path540"
         d="m 94.300293,162.31683 3.859742,-0.39511 0.270933,8.91152 -2.166055,-2.40701 -1.710267,2.40701 -0.254353,-8.51641"
         style="fill:#323032;fill-opacity:1;fill-rule:evenodd;stroke:none;stroke-width:0.03527778"
         inkscape:connector-curvature="0" />
    </g>
  </g>
</svg>
