<svg id="Layer_1" data-name="Layer 1" xmlns="http://www.w3.org/2000/svg" viewBox="0 0 512 512"><defs><style>.cls-1{fill:#d9e4e8;}.cls-2{fill:#dae2e5;}.cls-3{fill:#79d3d3;}.cls-4{opacity:0.14;}.cls-5{fill:#17292d;}.cls-6{fill:#141f38;}</style></defs><title>digital-camera-filled</title><path class="cls-1" d="M448,115.2H352.65L338,74.69C330.19,53,308,38.4,282.83,38.4H229.17C204,38.4,181.81,53,174,74.69L159.35,115.2H64a51.26,51.26,0,0,0-51.2,51.2v256A51.26,51.26,0,0,0,64,473.6H448a51.26,51.26,0,0,0,51.2-51.2v-256A51.26,51.26,0,0,0,448,115.2Z"/><path class="cls-2" d="M435.2,179.2H409.6a12.84,12.84,0,0,1-12.8-12.8h0a12.84,12.84,0,0,1,12.8-12.8h25.6A12.84,12.84,0,0,1,448,166.4h0A12.84,12.84,0,0,1,435.2,179.2Z"/><path class="cls-3" d="M256,358.4a64,64,0,1,1,64-64A64.08,64.08,0,0,1,256,358.4Z"/><g class="cls-4"><path class="cls-5" d="M268,230.39a53.63,53.63,0,1,1-76,74.86,64.52,64.52,0,1,0,76-74.86Z"/></g><path class="cls-6" d="M435.2,153.6H409.6a12.8,12.8,0,0,0,0,25.6h25.6a12.8,12.8,0,1,0,0-25.6Z"/><path class="cls-6" d="M179.2,294.4A76.8,76.8,0,1,0,256,217.6,76.8,76.8,0,0,0,179.2,294.4Zm128,0A51.2,51.2,0,1,1,256,243.2,51.26,51.26,0,0,1,307.2,294.4Z"/><path class="cls-6" d="M448,102.4H361.64L350.06,70.34c-9.65-26.72-36.73-44.74-67.23-44.74H229.17c-30.51,0-57.59,18-67.23,44.74L150.36,102.4H64a64.19,64.19,0,0,0-64,64v256a64.19,64.19,0,0,0,64,64H448a64.19,64.19,0,0,0,64-64v-256A64.19,64.19,0,0,0,448,102.4ZM186,79c6-16.65,23.35-27.84,43.16-27.84h53.66C302.63,51.2,320,62.39,326,79l8.43,23.36H177.58ZM25.6,230.4H145.13a128.13,128.13,0,0,0,0,128H25.6Zm332.8,64A102.4,102.4,0,1,1,256,192,102.52,102.52,0,0,1,358.4,294.4Zm128,128A38.44,38.44,0,0,1,448,460.8H64a38.44,38.44,0,0,1-38.4-38.4V384h139a128,128,0,0,0,182.8,0h139Zm0-64H366.87a128.13,128.13,0,0,0,0-128H486.4Zm0-153.6h-139a128,128,0,0,0-182.8,0H25.6V166.4A38.44,38.44,0,0,1,64,128H448a38.44,38.44,0,0,1,38.4,38.4Z"/></svg>