<?xml version="1.0" encoding="UTF-8" standalone="no"?>
<!-- Created with Inkscape (http://www.inkscape.org/) -->

<svg
   xmlns:dc="http://purl.org/dc/elements/1.1/"
   xmlns:cc="http://creativecommons.org/ns#"
   xmlns:rdf="http://www.w3.org/1999/02/22-rdf-syntax-ns#"
   xmlns:svg="http://www.w3.org/2000/svg"
   xmlns="http://www.w3.org/2000/svg"
   xmlns:sodipodi="http://sodipodi.sourceforge.net/DTD/sodipodi-0.dtd"
   xmlns:inkscape="http://www.inkscape.org/namespaces/inkscape"
   width="13.229167mm"
   height="13.229167mm"
   viewBox="0 0 13.229167 13.229167"
   version="1.1"
   id="svg8"
   sodipodi:docname="graduated.svg"
   inkscape:version="0.92.5 (2060ec1f9f, 2020-04-08)">
  <defs
     id="defs2" />
  <sodipodi:namedview
     id="base"
     pagecolor="#ffffff"
     bordercolor="#666666"
     borderopacity="1.0"
     inkscape:pageopacity="0.0"
     inkscape:pageshadow="2"
     inkscape:zoom="0.175"
     inkscape:cx="136.30606"
     inkscape:cy="24.59979"
     inkscape:document-units="mm"
     inkscape:current-layer="layer1"
     showgrid="false"
     inkscape:object-nodes="false"
     inkscape:window-width="1366"
     inkscape:window-height="715"
     inkscape:window-x="-8"
     inkscape:window-y="-8"
     inkscape:window-maximized="1" />
  <metadata
     id="metadata5">
    <rdf:RDF>
      <cc:Work
         rdf:about="">
        <dc:format>image/svg+xml</dc:format>
        <dc:type
           rdf:resource="http://purl.org/dc/dcmitype/StillImage" />
        <dc:title></dc:title>
      </cc:Work>
    </rdf:RDF>
  </metadata>
  <g
     inkscape:label="Layer 1"
     inkscape:groupmode="layer"
     id="layer1"
     transform="translate(-334.14981,-172.65746)">
    <g
       id="g4590"
       transform="matrix(0.22595664,0,0,0.22595664,350.48292,171.11973)">
      <path
         inkscape:connector-curvature="0"
         id="path372"
         style="fill:#f9ae0b;fill-opacity:1;fill-rule:evenodd;stroke:none;stroke-width:0.03527778"
         d="m -63.215877,41.134479 c -1.673472,2.21615 -2.259432,5.258859 -2.011796,8.941153 2.339774,2.005189 4.117562,1.95192 5.463092,0.318206 0.08407,-7.090128 -0.930451,-10.621434 -3.451296,-9.259359 v 0" />
      <path
         inkscape:connector-curvature="0"
         id="path374"
         style="fill:#e0a413;fill-opacity:1;fill-rule:evenodd;stroke:none;stroke-width:0.03527778"
         d="m -63.69763,51.140316 -0.13395,-7.237237 -0.746619,6.688314 c 0.304695,0.217312 0.595983,0.401462 0.880569,0.548923 v 0" />
      <path
         inkscape:connector-curvature="0"
         id="path376"
         style="fill:#e0a413;fill-opacity:1;fill-rule:evenodd;stroke:none;stroke-width:0.03527778"
         d="m -62.690167,47.166627 -0.374968,3.049764 0.06354,-4.040364 -0.391478,5.108222 c 0.277813,0.123825 0.545677,0.207433 0.80324,0.261056 h 0.02688 l -0.127212,-4.378678" />
      <path
         inkscape:connector-curvature="0"
         id="path378"
         style="fill:#e0a413;fill-opacity:1;fill-rule:evenodd;stroke:none;stroke-width:0.03527778"
         d="m -61.233971,44.53561 0.01005,6.935964 c 0.177483,-0.05997 0.351402,-0.140405 0.518831,-0.240947 l 0.19431,-3.350684 -0.452156,-0.231069 -0.271039,-3.113264" />
      <path
         inkscape:connector-curvature="0"
         id="path380"
         style="fill:#323333;fill-opacity:1;fill-rule:evenodd;stroke:none;stroke-width:0.03527778"
         d="m -34.812148,48.643002 1.29547,-11.806768 h -4.499293 l -1.27194,12.021257 c 1.610254,0.0568 3.129951,-0.0071 4.475763,-0.214489 v 0" />
      <path
         inkscape:connector-curvature="0"
         id="path382"
         style="fill:#373738;fill-opacity:1;fill-rule:evenodd;stroke:none;stroke-width:0.03527778"
         d="m -56.865453,32.581734 c -0.535658,2.989439 -1.071174,5.978878 -1.603481,8.967964 0,5.004506 23.673437,10.568165 28.259478,5.02144 0,0 0.190852,-0.512234 0.267758,-1.051278 0.32138,-2.226028 1.168047,-8.020756 1.402644,-8.783815 l -0.0067,-0.0067 c -1.452739,0.364772 -28.319697,-4.147609 -28.319697,-4.147609 v 0" />
      <path
         inkscape:connector-curvature="0"
         id="path384"
         style="fill:#444448;fill-opacity:1;fill-rule:evenodd;stroke:none;stroke-width:0.03527778"
         d="m -68.56487,27.761378 0.240743,-0.903464 25.240292,-1.567039 27.06416,9.269237 -0.244475,0.944033 -25.122789,3.862917 -27.177931,-11.605684" />
      <path
         inkscape:connector-curvature="0"
         id="path386"
         style="fill:#373738;fill-opacity:1;fill-rule:evenodd;stroke:none;stroke-width:0.03527778"
         d="m -16.019675,34.560112 -25.186324,3.866445 -27.118128,-11.565821 v -0.0028 l 25.384013,-2.436989 26.920439,10.139187 v 0" />
      <path
         inkscape:connector-curvature="0"
         id="path388"
         style="fill:#201d1d;fill-opacity:1;fill-rule:nonzero;stroke:none;stroke-width:0.03527778"
         d="m -16.012619,34.616909 v 0 m -25.186466,3.75285 24.955396,-3.83293 -26.703022,-10.059107 -25.152933,2.416881 z m 25.186466,-3.75285 -25.186466,3.866445 c -0.0102,0 -0.02357,0 -0.03376,-0.0067 L -68.34397,26.911184 c -0.02687,-0.0099 -0.04024,-0.04022 -0.03349,-0.06703 v 0 0 c 0.0066,-0.02681 0.03018,-0.04375 0.05333,-0.04375 l 25.380697,-2.436636 c 0.01009,0 0.01697,0 0.02342,0.0035 v 0 l 26.920438,10.139539 c 0.02716,0.01305 0.04339,0.04339 0.03034,0.07338 -0.0032,0.01341 -0.01341,0.02364 -0.02364,0.03034 h -0.0032 v 0 c -0.0067,0.0032 -0.01023,0.0063 -0.01658,0.0063" />
      <path
         inkscape:connector-curvature="0"
         id="path390"
         style="fill:#2b2828;fill-opacity:1;fill-rule:nonzero;stroke:none;stroke-width:0.03527778"
         d="m -44.462985,31.015048 c 0.197626,0.06385 0.304553,0.277989 0.237596,0.475544 -0.06685,0.194028 -0.277813,0.301273 -0.475439,0.237772 -2.199216,-0.743302 -5.536671,-0.803627 -8.566009,-0.308327 -1.533349,0.254705 -2.909041,0.61595 -4.080651,1.131711 l -0.980758,-0.35807 c 1.338898,-0.696383 3.086382,-1.208616 4.940935,-1.513416 3.136583,-0.515056 6.611162,-0.444853 8.924326,0.334786 v 0" />
      <path
         inkscape:connector-curvature="0"
         id="path392"
         style="fill:#f78e12;fill-opacity:1;fill-rule:nonzero;stroke:none;stroke-width:0.03527778"
         d="m -44.764504,30.516573 c 0.197485,0.06668 0.301519,0.277636 0.237984,0.475191 -0.06724,0.197556 -0.281235,0.3048 -0.475404,0.23742 -2.19964,-0.739422 -5.536812,-0.802922 -8.566291,-0.304447 -4.653104,0.763411 -7.806585,2.684992 -8.308482,7.622117 -0.04699,0.445558 -0.08033,0.796925 -0.190853,1.061155 -0.08036,0.194381 -0.301095,0.285045 -0.491984,0.204259 -0.194274,-0.08008 -0.284409,-0.301272 -0.204328,-0.492125 0.07056,-0.166864 0.100435,-0.465314 0.140828,-0.846667 0.565397,-5.577064 3.728968,-7.43832 8.934239,-8.291689 3.13683,-0.515762 6.611409,-0.445206 8.924291,0.334786 v 0" />
      <path
         inkscape:connector-curvature="0"
         id="path394"
         style="fill:#e0a413;fill-opacity:1;fill-rule:evenodd;stroke:none;stroke-width:0.03527778"
         d="m -62.184566,38.379637 c 0.954158,0.05362 1.683703,0.830439 1.63008,1.734256 -0.05027,0.903464 -0.867057,1.589617 -1.821074,1.536347 -0.953876,-0.05715 -1.686842,-0.833614 -1.633502,-1.737431 0.05359,-0.903816 0.866916,-1.589969 1.824496,-1.533172 v 0" />
      <path
         inkscape:connector-curvature="0"
         id="path396"
         style="fill:#201d1d;fill-opacity:1;fill-rule:evenodd;stroke:none;stroke-width:0.03527778"
         d="m -42.293931,29.6057 c 2.041808,0.127353 3.69242,0.833614 3.69242,1.576917 0,0.746478 -1.650612,1.248834 -3.69242,1.121128 -2.038702,-0.126647 -3.692207,-0.833261 -3.692207,-1.579739 0,-0.74295 1.653505,-1.245306 3.692207,-1.118306 v 0" />
    </g>
  </g>
</svg>
