<?xml version="1.0" encoding="UTF-8" standalone="no"?>
<!-- Created with Inkscape (http://www.inkscape.org/) -->

<svg
   xmlns:dc="http://purl.org/dc/elements/1.1/"
   xmlns:cc="http://creativecommons.org/ns#"
   xmlns:rdf="http://www.w3.org/1999/02/22-rdf-syntax-ns#"
   xmlns:svg="http://www.w3.org/2000/svg"
   xmlns="http://www.w3.org/2000/svg"
   xmlns:sodipodi="http://sodipodi.sourceforge.net/DTD/sodipodi-0.dtd"
   xmlns:inkscape="http://www.inkscape.org/namespaces/inkscape"
   width="1264.7428mm"
   height="897.74579mm"
   viewBox="0 0 1264.7428 897.74579"
   version="1.1"
   id="svg8"
   sodipodi:docname="teacher.svg"
   inkscape:version="0.92.5 (2060ec1f9f, 2020-04-08)">
  <defs
     id="defs2" />
  <sodipodi:namedview
     id="base"
     pagecolor="#ffffff"
     bordercolor="#666666"
     borderopacity="1.0"
     inkscape:pageopacity="0.0"
     inkscape:pageshadow="2"
     inkscape:zoom="0.061871843"
     inkscape:cx="2659.466"
     inkscape:cy="1571.6344"
     inkscape:document-units="mm"
     inkscape:current-layer="layer1"
     showgrid="false"
     inkscape:window-width="1366"
     inkscape:window-height="715"
     inkscape:window-x="-8"
     inkscape:window-y="-8"
     inkscape:window-maximized="1" />
  <metadata
     id="metadata5">
    <rdf:RDF>
      <cc:Work
         rdf:about="">
        <dc:format>image/svg+xml</dc:format>
        <dc:type
           rdf:resource="http://purl.org/dc/dcmitype/StillImage" />
      </cc:Work>
    </rdf:RDF>
  </metadata>
  <g
     inkscape:label="Layer 1"
     inkscape:groupmode="layer"
     id="layer1"
     transform="translate(564.06158,281.73339)">
    <g
       id="g18"
       transform="matrix(0.07526373,0,0,-0.07526373,-667.75857,616.01238)">
      <path
         d="M 1534.07,2734.81 H 16300 V 11928 H 1534.07 V 2734.81"
         style="fill:#d0a372;fill-opacity:1;fill-rule:nonzero;stroke:none"
         id="path20"
         inkscape:connector-curvature="0" />
    </g>
    <g
       id="g22"
       transform="matrix(0.07491166,0,0,-0.07491166,-667.75857,616.01238)">
      <path
         d="m 16072.7,11643.9 c 72.5,82.7 144.9,165.4 217.3,248.2 8.3,9.4 10,24.8 0,34 -9.1,8.3 -25.2,10.1 -34,0 -72.5,-82.8 -144.8,-165.5 -217.3,-248.2 -8.3,-9.5 -10,-24.9 0,-34 9.1,-8.4 25.2,-10.2 34,0 v 0"
         style="fill:#997856;fill-opacity:1;fill-rule:nonzero;stroke:none"
         id="path24"
         inkscape:connector-curvature="0" />
    </g>
    <g
       id="g26"
       transform="matrix(0.05488023,0,0,-0.05488023,-667.75857,616.01238)">
      <path
         d="m 2580.66,15933.8 c -101.83,85 -199.01,175.5 -290.86,271.2 -25.91,27 -51.38,54.4 -76.45,82.2 -11.54,12.8 -34.85,12.6 -46.42,0 -12.54,-13.6 -12.31,-32.8 0,-46.4 88.87,-98.5 183.09,-192.1 282.25,-280.2 27.97,-24.9 56.34,-49.3 85.06,-73.2 13.16,-11 33.69,-13.9 46.42,0 11.14,12.1 14.07,34.6 0,46.4 v 0"
         style="fill:#997856;fill-opacity:1;fill-rule:nonzero;stroke:none"
         id="path28"
         inkscape:connector-curvature="0" />
    </g>
    <path
       d="m -552.29863,410.18064 h 4.4443 l 23.54051,-27.9788 z"
       style="fill:#997856;fill-opacity:1;fill-rule:nonzero;stroke:none;stroke-width:0.03527778"
       id="path30"
       inkscape:connector-curvature="0" />
    <g
       id="g32"
       transform="matrix(0.07526373,0,0,-0.07526373,-667.75857,616.01238)">
      <path
         d="m 15928.2,3106.55 371.8,-371.74 h -37.1 l -334.7,371.74"
         style="fill:#997856;fill-opacity:1;fill-rule:nonzero;stroke:none"
         id="path34"
         inkscape:connector-curvature="0" />
    </g>
    <g
       id="g36"
       transform="matrix(0.07354676,0,0,-0.07354676,-667.75857,616.01238)">
      <path
         d="M 1950.39,3179.07 V 11826 H 16300 V 3179.07 H 1950.39"
         style="fill:#243332;fill-opacity:1;fill-rule:nonzero;stroke:none"
         id="path38"
         inkscape:connector-curvature="0" />
    </g>
    <g
       id="g40"
       transform="matrix(0.0736981,0,0,-0.0736981,-667.75857,616.01238)">
      <path
         d="m 2223.62,4427.93 c -52.13,1142.8 -52.13,5059.31 0,6202.07 24.13,528.9 446.45,952.7 975.27,978.8 4245.44,209.6 12214.81,157 12658.01,47.3 443.1,-109.6 354,-5928.41 268.3,-7707.52 -26.9,-558.04 -517.3,-613.52 -1075.8,-598.21 -3914,107.28 -7936.51,-94.54 -11850.51,98.8 -528.82,26.09 -951.14,449.87 -975.27,978.76"
         style="fill:#2f4846;fill-opacity:1;fill-rule:nonzero;stroke:none"
         id="path42"
         inkscape:connector-curvature="0" />
    </g>
    <g
       id="g44"
       transform="matrix(0.0732088,0,0,-0.0732088,-667.75857,616.01238)">
      <path
         d="m 15292.8,3421.01 c -42.5,0 -1882.2,37.58 -2974.1,37.58 -799,0 -4005.9,-24 -4806.93,-24 -1724.55,0 -3045.61,28.53 -4283.4,92.53 -216.64,11.17 -420.24,105.86 -573.31,266.62 -153.07,160.75 -242.82,374.18 -252.69,600.9 -51.99,1192.6 -51.99,5225.07 0,6417.66 9.87,226.8 99.62,440.2 252.69,600.9 153.07,160.8 356.67,255.5 573.31,266.7 2635.14,136.2 6286.43,150.9 7733.93,150.9 1271.7,0 2478.2,-10.2 3397.2,-28.8 1190.2,-24 1587.1,-132.7 1618.7,-259.7 31.5,-126.4 58.9,-297.2 81.6,-507.7 41.3,-385 66.9,-905.1 76,-1545.67 19.5,-1368.54 164.2,-5269.16 -50.2,-5659.58 -214.3,-390.42 -389.4,-408.34 -792.8,-408.34"
         style="fill:#3d5958;fill-opacity:1;fill-rule:nonzero;stroke:none"
         id="path46"
         inkscape:connector-curvature="0" />
    </g>
    <g
       id="g48"
       transform="matrix(0.0542664,0,0,-0.0542664,-667.75857,616.01238)">
      <path
         d="m 6308.15,14693.2 c 1282.09,40.9 2564.71,66.8 3847.35,77.5 1276.2,10.7 2552.5,6.3 3828.6,-13 719.8,-10.9 1439.6,-26.6 2159.2,-47 156.7,-4.4 156.6,239 0,243.5 -1282.3,36.3 -2564.9,57.6 -3847.7,63.8 -1276.2,6.1 -2552.41,-2.8 -3828.39,-26.7 -719.84,-13.4 -1439.48,-31.7 -2159.06,-54.6 -156.27,-5 -156.96,-248.5 0,-243.5 v 0"
         style="fill:#3f5c5b;fill-opacity:1;fill-rule:nonzero;stroke:none"
         id="path50"
         inkscape:connector-curvature="0" />
    </g>
    <g
       id="g52"
       transform="matrix(0.06259725,0,0,-0.06259725,-667.75857,616.01238)">
      <path
         d="m 14915.9,11835.2 c 166,0 332.1,0 498.2,0 166,0 332.1,0 498.2,0 93.6,0 187.3,0 281,0 27,0 55.5,11.8 74.6,30.9 18.3,18.3 32.1,48.4 30.9,74.7 -1.2,27.3 -10.2,55.6 -30.9,74.6 -20.7,18.9 -46,30.9 -74.6,30.9 -166.1,0 -332.2,0 -498.2,0 -166.1,0 -332.1,0 -498.2,0 -93.7,0 -187.4,0 -281,0 -27.1,0 -55.5,-11.8 -74.6,-30.9 -18.4,-18.3 -32.1,-48.4 -31,-74.6 1.3,-27.3 10.2,-55.6 31,-74.7 20.6,-18.9 46,-30.9 74.6,-30.9 v 0"
         style="fill:#3f5c5b;fill-opacity:1;fill-rule:nonzero;stroke:none"
         id="path54"
         inkscape:connector-curvature="0" />
    </g>
    <g
       id="g56"
       transform="matrix(0.06841102,0,0,-0.06841102,-667.75857,616.01238)">
      <path
         d="m 9462.16,4300.36 c 876.34,0 1752.74,0 2629.14,0 876.4,0 1752.7,0 2629.1,0 494.3,0 988.7,0 1483.1,0 52.2,0 96.5,44.4 96.5,96.59 0,52.34 -44.2,96.53 -96.5,96.53 -876.4,0 -1752.8,0 -2629.1,0 -876.4,0 -1752.8,0 -2629.2,0 -494.3,0 -988.66,0 -1483.04,0 -52.19,0 -96.54,-44.4 -96.54,-96.53 0,-52.39 44.2,-96.59 96.54,-96.59 v 0"
         style="fill:#3f5c5b;fill-opacity:1;fill-rule:nonzero;stroke:none"
         id="path58"
         inkscape:connector-curvature="0" />
    </g>
    <g
       id="g60"
       transform="matrix(0.07491166,0,0,-0.07491166,-667.75857,616.01238)">
      <path
         d="m 16072.7,11643.9 c 72.5,82.7 144.9,165.4 217.3,248.2 8.3,9.4 10,24.8 0,34 -9.1,8.3 -25.2,10.1 -34,0 -72.5,-82.8 -144.8,-165.5 -217.3,-248.2 -8.3,-9.5 -10,-24.9 0,-34 9.1,-8.4 25.2,-10.2 34,0 v 0"
         style="fill:#997856;fill-opacity:1;fill-rule:nonzero;stroke:none"
         id="path62"
         inkscape:connector-curvature="0" />
    </g>
    <g
       id="g64"
       transform="matrix(0.05488023,0,0,-0.05488023,-667.75857,616.01238)">
      <path
         d="m 2580.66,15933.8 c -101.83,85 -199.01,175.5 -290.86,271.2 -25.91,27 -51.38,54.4 -76.45,82.2 -11.54,12.8 -34.85,12.6 -46.42,0 -12.54,-13.6 -12.31,-32.8 0,-46.4 88.87,-98.5 183.09,-192.1 282.25,-280.2 27.97,-24.9 56.34,-49.3 85.06,-73.2 13.16,-11 33.69,-13.9 46.42,0 11.14,12.1 14.07,34.6 0,46.4 v 0"
         style="fill:#997856;fill-opacity:1;fill-rule:nonzero;stroke:none"
         id="path66"
         inkscape:connector-curvature="0" />
    </g>
    <g
       id="g68"
       transform="matrix(0.07613862,0,0,-0.07613862,-667.75857,616.01238)">
      <path
         d="M 15745.1,3065.84 H 1883.99 L 1361.95,2888.62 H 16300 l -554.9,177.22"
         style="fill:#c0966a;fill-opacity:1;fill-rule:nonzero;stroke:none"
         id="path70"
         inkscape:connector-curvature="0" />
    </g>
    <g
       id="g72"
       transform="matrix(0.07613862,0,0,-0.07613862,-667.75857,616.01238)">
      <path
         d="M 1361.95,2703.38 H 16300 v 185.24 H 1361.95 v -185.24"
         style="fill:#dab48d;fill-opacity:1;fill-rule:nonzero;stroke:none"
         id="path74"
         inkscape:connector-curvature="0" />
    </g>
    <path
       d="m -264.68877,346.7265 c -7.16491,0 -15.37758,0 -23.27275,0 0,0 -15.7233,0 -32.95791,0 -7.89552,0 -16.10854,0 -23.27452,0 -15.00575,0 -14.0977,10.44222 -14.0977,10.44222 v 27.23445 h 37.37222 32.95791 37.37328 v -27.23445 c 0,0 0.90664,-10.44222 -14.10053,-10.44222"
       style="fill:#ebb945;fill-opacity:1;fill-rule:nonzero;stroke:none;stroke-width:0.03527778"
       id="path76"
       inkscape:connector-curvature="0" />
    <path
       d="m -250.57765,388.88345 h -107.714 v -7.30956 h 107.714 v 7.30956"
       style="fill:#d3d4d3;fill-opacity:1;fill-rule:nonzero;stroke:none;stroke-width:0.03527778"
       id="path78"
       inkscape:connector-curvature="0" />
    <path
       d="m -358.29165,371.96775 h 107.70341 v -10.43516 h -107.70341 v 10.43516"
       style="fill:#d0a53f;fill-opacity:1;fill-rule:nonzero;stroke:none;stroke-width:0.03527778"
       id="path80"
       inkscape:connector-curvature="0" />
    <path
       d="m -370.59513,388.88345 -41.92482,-6.51228 1.38465,-7.112 41.58474,6.78392 -1.04457,6.84036"
       style="fill:#e9eaea;fill-opacity:1;fill-rule:nonzero;stroke:none;stroke-width:0.03527778"
       id="path82"
       inkscape:connector-curvature="0" />
    <path
       d="m -377.22065,387.85334 c -11.81594,-1.83445 -35.2993,-5.48217 -35.2993,-5.48217 l 1.38465,-7.112 c 0,0 0.65194,0.10583 1.79282,0.29281 0,0 -1.77236,4.45911 5.31495,6.67102 7.0866,2.20839 26.80688,5.63034 26.80688,5.63034"
       style="fill:#d3d4d3;fill-opacity:1;fill-rule:nonzero;stroke:none;stroke-width:0.03527778"
       id="path84"
       inkscape:connector-curvature="0" />
    <path
       d="m -375.42854,388.29784 -42.42365,0.58561 0.17533,-7.24606 42.13402,-0.26105 0.1143,6.9215"
       style="fill:#e9eaea;fill-opacity:1;fill-rule:nonzero;stroke:none;stroke-width:0.03527778"
       id="path86"
       inkscape:connector-curvature="0" />
    <path
       d="m -382.13308,388.38956 c -11.95635,0.16581 -35.71911,0.49389 -35.71911,0.49389 l 0.17533,-7.24606 c 0,0 0.66076,-0.004 1.81646,-0.0106 0,0 -1.00083,4.69547 6.35564,5.69031 7.35683,0.9913 27.37168,1.07244 27.37168,1.07244"
       style="fill:#d3d4d3;fill-opacity:1;fill-rule:nonzero;stroke:none;stroke-width:0.03527778"
       id="path88"
       inkscape:connector-curvature="0" />
    <path
       d="m -169.29059,349.31236 h -57.68976 v 39.57109 h 57.68976 v -39.57109"
       style="fill:#d3d4d3;fill-opacity:1;fill-rule:nonzero;stroke:none;stroke-width:0.03527778"
       id="path90"
       inkscape:connector-curvature="0" />
    <path
       d="m -207.41882,346.7265 h 20.73981 l 17.5013,2.58586 h -57.68622 l 19.44511,-2.58586"
       style="fill:#e9eaea;fill-opacity:1;fill-rule:nonzero;stroke:none;stroke-width:0.03527778"
       id="path92"
       inkscape:connector-curvature="0" />
    <g
       id="g94"
       transform="matrix(0.07207497,0,0,-0.07207497,-667.75857,616.01238)">
      <path
         d="m 16297.7,1582.42 h -484.4 c 3.7,722 -73.1,1471.8 -384.1,2266.83 -37,94.61 41,194.41 141.6,180.27 120.4,-16.99 240.8,-31.77 361.2,-44.35 55,-5.72 100.6,-44.93 114.8,-98.43 203.9,-771.24 253.2,-1563.62 250.9,-2304.32"
         style="fill:#d0a372;fill-opacity:1;fill-rule:nonzero;stroke:none"
         id="path96"
         inkscape:connector-curvature="0" />
    </g>
    <g
       id="g98"
       transform="matrix(0.08201555,0,0,-0.08201555,-667.75857,616.01238)">
      <path
         d="m 15929.8,1390.63 h -425.7 c -1.9,650.92 41.4,1347.27 220.6,2025.04 12.5,47.01 52.5,81.46 100.8,86.5 105.8,11.05 211.6,24.04 317.5,38.97 88.4,12.43 157,-75.28 124.4,-158.42 -273.3,-698.67 -340.8,-1357.6 -337.6,-1992.09"
         style="fill:#d0a372;fill-opacity:1;fill-rule:nonzero;stroke:none"
         id="path100"
         inkscape:connector-curvature="0" />
    </g>
    <g
       id="g102"
       transform="matrix(0.08000683,0,0,-0.08000683,-667.75857,616.01238)">
      <path
         d="m 16175.2,2763.6 c -591.7,-16.71 -1183.4,-16.71 -1775.1,0 -31.8,179.06 -72.7,359.62 -124.7,541.82 674.9,-61.34 1349.7,-61.34 2024.6,0 -52,-182.2 -92.9,-362.76 -124.8,-541.82"
         style="fill:#d0a372;fill-opacity:1;fill-rule:nonzero;stroke:none"
         id="path104"
         inkscape:connector-curvature="0" />
    </g>
    <g
       id="g106"
       transform="matrix(0.0792346,0,0,-0.0792346,-667.75857,616.01238)">
      <path
         d="m 16267.9,2315.82 c -554.2,12.92 -1108.3,12.92 -1662.4,0 -8.8,89.18 -19.5,178.68 -32.2,268.52 575.6,-2.89 1151.1,-2.89 1726.7,0 -12.7,-89.84 -23.4,-179.34 -32.1,-268.52"
         style="fill:#d0a372;fill-opacity:1;fill-rule:nonzero;stroke:none"
         id="path108"
         inkscape:connector-curvature="0" />
    </g>
    <g
       id="g110"
       transform="matrix(0.0792346,0,0,-0.0792346,-667.75857,616.01238)">
      <path
         d="m 16267.9,1824.2 c -554.2,12.91 -1108.3,12.91 -1662.4,0 -8.8,89.18 -19.5,178.67 -32.2,268.52 575.6,-2.94 1151.1,-2.89 1726.7,0 -12.7,-89.85 -23.4,-179.38 -32.1,-268.52"
         style="fill:#d0a372;fill-opacity:1;fill-rule:nonzero;stroke:none"
         id="path112"
         inkscape:connector-curvature="0" />
    </g>
    <g
       id="g114"
       transform="matrix(0.08173685,0,0,-0.08173685,-667.75857,616.01238)">
      <path
         d="m 16300,1254.84 h -2671.7 v 342 H 16300 v -342"
         style="fill:#d0a372;fill-opacity:1;fill-rule:nonzero;stroke:none"
         id="path116"
         inkscape:connector-curvature="0" />
    </g>
    <g
       id="g118"
       transform="matrix(0.07827963,0,0,-0.07827963,-667.75857,616.01238)">
      <path
         d="m 15174.5,3251.63 c 133.3,-317.77 423.5,-922.06 607,-1215.08 104.4,-166.88 323.7,-228.17 419.4,-110.59 99.1,121.9 95.7,181.84 24,359.58 -26.1,64.76 -224.2,704.52 -441.2,996.33 -130.4,175.48 -481.6,469.9 -576.6,407.94 -95,-61.97 -83.8,-316.19 -32.6,-438.18"
         style="fill:#fab8ad;fill-opacity:1;fill-rule:nonzero;stroke:none"
         id="path120"
         inkscape:connector-curvature="0" />
    </g>
    <g
       id="g122"
       transform="matrix(0.06617865,0,0,-0.06617865,-667.75857,616.01238)">
      <path
         d="m 16226.2,3865.24 c -157.7,-375.82 -501,-1090.66 -718,-1437.21 -123.5,-197.4 -382.9,-269.9 -496,-130.82 -117.3,144.14 -113.3,215.1 -28.5,425.34 30.9,76.55 265.2,833.35 521.9,1178.51 154.3,207.58 569.6,555.83 682,482.53 112.4,-73.29 99.1,-374 38.6,-518.35"
         style="fill:#fab8ad;fill-opacity:1;fill-rule:nonzero;stroke:none"
         id="path124"
         inkscape:connector-curvature="0" />
    </g>
    <g
       id="g126"
       transform="matrix(0.06589113,0,0,-0.06589113,-667.75857,616.01238)">
      <path
         d="m 16185.1,4517.5 c -114.8,41.02 -360.1,42.14 -475.5,-116.17 -105.5,-144.72 -604.2,-1215.62 -604.2,-1215.62 0,0 444.8,-434.96 1038.5,-372.64 0,0 156.1,1663.42 41.2,1704.43"
         style="fill:#cd985f;fill-opacity:1;fill-rule:nonzero;stroke:none"
         id="path128"
         inkscape:connector-curvature="0" />
    </g>
    <g
       id="g130"
       transform="matrix(0.07769155,0,0,-0.07769155,-667.75857,616.01238)">
      <path
         d="m 15384.3,3815.14 c 97.4,34.79 305.4,35.69 403.3,-98.58 89.4,-122.73 512.4,-1030.93 512.4,-1030.93 0,0 -377.2,-368.94 -880.8,-316.08 0,0 -132.4,1410.81 -34.9,1445.59"
         style="fill:#cd985f;fill-opacity:1;fill-rule:nonzero;stroke:none"
         id="path132"
         inkscape:connector-curvature="0" />
    </g>
    <g
       id="g134"
       transform="matrix(0.076847,0,0,-0.076847,-667.75857,616.01238)">
      <path
         d="m 16128.4,4293.08 c 110.8,137.54 171.6,308.49 160.4,481.33 -20.9,323.87 -288.7,630.75 -636.7,737.99 -160.3,49.39 -340.4,58.07 -490,-3.77 -127.6,-52.65 -420.4,-286.45 -451.7,-671.01 -13.9,-170.13 57.4,-342.05 160.5,-490.14 90,-129.27 212.3,-247.07 368.4,-307.67 158.1,-61.28 339.6,-58.3 498.4,-10 158.6,48.2 293.8,142.99 390.7,263.27"
         style="fill:#4c2a23;fill-opacity:1;fill-rule:nonzero;stroke:none"
         id="path136"
         inkscape:connector-curvature="0" />
    </g>
    <g
       id="g138"
       transform="matrix(0.07603279,0,0,-0.07603279,-667.75857,616.01238)">
      <path
         d="m 15039.4,4424.8 c 83.2,-553.49 979,-681.92 1260.6,-221 -179.2,-608.09 -1360.6,-369.84 -1260.6,221"
         style="fill:#4c2a23;fill-opacity:1;fill-rule:nonzero;stroke:none"
         id="path140"
         inkscape:connector-curvature="0" />
    </g>
    <g
       id="g142"
       transform="matrix(0.07629349,0,0,-0.07629349,-667.75857,616.01238)">
      <path
         d="m 14962.2,5101.66 c -79.8,200.68 33.6,429.56 236.2,536.1 437.6,221.9 957.1,-63.21 1101.6,-450.88 -504.5,698.08 -1374.2,480.56 -1337.8,-85.22"
         style="fill:#4c2a23;fill-opacity:1;fill-rule:nonzero;stroke:none"
         id="path144"
         inkscape:connector-curvature="0" />
    </g>
    <g
       id="g146"
       transform="matrix(0.07821895,0,0,-0.07821895,-667.75857,616.01238)">
      <path
         d="m 14654.9,5241.55 c 574.2,552.49 1645.1,30.98 1382.5,-670.75 91.7,721.94 -816.2,1047.35 -1382.5,670.75"
         style="fill:#4c2a23;fill-opacity:1;fill-rule:nonzero;stroke:none"
         id="path148"
         inkscape:connector-curvature="0" />
    </g>
    <g
       id="g150"
       transform="matrix(0.07667802,0,0,-0.07667802,-667.75857,616.01238)">
      <path
         d="m 14892.4,4432.76 c 226.4,-683.63 1159.6,-502.55 1407.6,16.19 -214.3,-785.67 -1402.2,-660.49 -1407.6,-16.19"
         style="fill:#4c2a23;fill-opacity:1;fill-rule:nonzero;stroke:none"
         id="path152"
         inkscape:connector-curvature="0" />
    </g>
    <g
       id="g154"
       transform="matrix(0.07556853,0,0,-0.07556853,-667.75857,616.01238)">
      <path
         d="m 15174.1,4447.74 c 87.9,-89.54 206.2,-147 328.7,-169.51 122.7,-23.24 249,-7.56 360.4,36.04 27.9,10.98 54.9,23.63 80.9,37.63 25.9,14.19 50.7,30.07 74.5,47.01 23.6,17.18 45.6,35.85 66.9,55.51 20.8,20.02 40.5,41.08 58.9,63.11 73.4,88.7 123.7,193.5 155.6,305.03 -3.9,-116.24 -42.1,-232.11 -111.3,-332.38 -17.5,-24.88 -36.8,-48.93 -58,-71.66 -21.4,-22.6 -44.9,-43.74 -69.7,-63.58 -25.2,-19.47 -52,-37.26 -80,-53.55 -28.4,-15.73 -58,-29.88 -88.7,-42.15 -31,-11.67 -63,-21.67 -95.7,-29.41 -32.9,-7.1 -66.5,-12.47 -100.5,-15.08 -34.2,-2.15 -68.5,-2.24 -102.8,0.65 -34.3,3.22 -68.2,9.06 -101.3,17.27 -33,8.83 -65.3,19.7 -96.1,33.19 -30.6,13.96 -60.1,29.74 -87.7,47.76 -27.1,18.72 -52.7,38.89 -75.5,61.25 -22.3,22.73 -42.2,47.06 -58.6,72.87"
         style="fill:#3e231f;fill-opacity:1;fill-rule:nonzero;stroke:none"
         id="path156"
         inkscape:connector-curvature="0" />
    </g>
    <g
       id="g158"
       transform="matrix(0.07608041,0,0,-0.07608041,-667.75857,616.01238)">
      <path
         d="m 15059.5,5136.8 c 75.2,77.35 176.1,135.45 286.7,171.71 111,36.07 232.9,50.08 353.7,38.67 120.8,-11.36 238.9,-48.04 342.9,-104.42 103.8,-56.57 194.6,-132.85 257.2,-223.22 -84.2,75.07 -178.7,136.97 -281.3,182.5 -102.3,45.73 -212.1,75.35 -323.3,85.97 -111.1,10.48 -223.8,1.86 -331.5,-24.02 -107.9,-25.59 -210.3,-68.9 -304.4,-127.19"
         style="fill:#3e231f;fill-opacity:1;fill-rule:nonzero;stroke:none"
         id="path160"
         inkscape:connector-curvature="0" />
    </g>
    <g
       id="g162"
       transform="matrix(0.07454477,0,0,-0.07454477,-667.75857,616.01238)">
      <path
         d="m 15359.4,5019.03 c 9.6,-4.59 19,-9.33 28.8,-13.16 9.6,-4.17 19.4,-7.81 29.2,-11.08 19.8,-6.48 39.7,-12.06 59.9,-16.37 20.1,-4.45 40.4,-8 60.9,-11.03 20.6,-2.55 41.1,-5.11 61.4,-7.24 82,-7.33 163.7,-6.67 244.1,2.32 80.2,9.56 159,26.55 235.2,51.25 76.1,25.23 149.1,58.07 221.1,97.02 -52.8,-58.4 -121.8,-105.39 -197.8,-140.84 -76.5,-34.73 -160.7,-57.54 -247.3,-67.67 -86.7,-9.7 -176,-5.96 -262.1,10.98 -10.8,1.89 -21.4,4.97 -32,7.43 -10.6,2.74 -21.3,4.97 -31.7,8.18 -21,6.11 -41.8,13.3 -62,21.68 -40.2,16.8 -78.7,39.18 -107.7,68.53"
         style="fill:#3e231f;fill-opacity:1;fill-rule:nonzero;stroke:none"
         id="path164"
         inkscape:connector-curvature="0" />
    </g>
    <g
       id="g166"
       transform="matrix(0.07374608,0,0,-0.07374608,-667.75857,616.01238)">
      <path
         d="m 15511.5,5067.93 c 36.9,-71.76 80.8,-137.82 133.7,-197.19 52.7,-59.36 113.7,-111.84 181.7,-155.28 68,-43.38 143.1,-77.92 222.6,-103.09 79.6,-25.3 163.2,-40.8 250.5,-48.45 -84.5,-17.99 -175.7,-15.74 -263.6,2.1 -88,18.03 -173.4,52.1 -248.3,100.08 -74.9,47.88 -138.8,109.21 -186.9,178.14 -47.7,68.93 -80.4,145.85 -89.7,223.69"
         style="fill:#68392f;fill-opacity:1;fill-rule:nonzero;stroke:none"
         id="path168"
         inkscape:connector-curvature="0" />
    </g>
    <g
       id="g170"
       transform="matrix(0.07105897,0,0,-0.07105897,-667.75857,616.01238)">
      <path
         d="m 16300,4149.2 h -771.6 v 895.51 H 16300 V 4149.2"
         style="fill:#fab8ad;fill-opacity:1;fill-rule:nonzero;stroke:none"
         id="path172"
         inkscape:connector-curvature="0" />
    </g>
    <g
       id="g174"
       transform="matrix(0.07105897,0,0,-0.07105897,-667.75857,616.01238)">
      <path
         d="m 15528.4,5044.71 v -448.26 c 245.6,-97.55 524.2,-105.64 771.6,-7.29 v 455.55 h -771.6"
         style="fill:#c25c58;fill-opacity:1;fill-rule:nonzero;stroke:none"
         id="path176"
         inkscape:connector-curvature="0" />
    </g>
    <g
       id="g178"
       transform="matrix(0.07139517,0,0,-0.07139517,-667.75857,616.01238)">
      <path
         d="m 16300,4352.55 c 0,-153.62 -208.7,-925.04 -463.2,-925.04 -254.5,0 -458.4,771.42 -458.4,925.04 0,153.67 921.6,153.67 921.6,0"
         style="fill:#fab8ad;fill-opacity:1;fill-rule:nonzero;stroke:none"
         id="path180"
         inkscape:connector-curvature="0" />
    </g>
    <g
       id="g182"
       transform="matrix(0.07693519,0,0,-0.07693519,-667.75857,616.01238)">
      <path
         d="m 15759.2,5266.59 c 0,0 338.1,-193.64 439.5,110.56 101.3,304.15 -180.8,444.32 -368.7,310.43 -187.8,-133.89 -148.1,-386.82 -70.8,-420.99"
         style="fill:#fab8ad;fill-opacity:1;fill-rule:nonzero;stroke:none"
         id="path184"
         inkscape:connector-curvature="0" />
    </g>
    <g
       id="g186"
       transform="matrix(0.07612769,0,0,-0.07612769,-667.75857,616.01238)">
      <path
         d="m 16107.5,5707.13 c 57,-12.38 106.1,-49.82 131.6,-102.51 26.4,-54.59 22.2,-121.27 -7.7,-173.5 -10.8,-18.86 18.2,-36.23 29,-17.33 35.5,62.01 39.6,138.61 9.8,203.71 -28.2,61.68 -87.3,107.75 -153.2,122.06 -21.2,4.64 -30.7,-27.8 -9.5,-32.43 v 0"
         style="fill:#f79c8a;fill-opacity:1;fill-rule:nonzero;stroke:none"
         id="path188"
         inkscape:connector-curvature="0" />
    </g>
    <g
       id="g190"
       transform="matrix(0.06480775,0,0,-0.06480775,-667.75857,616.01238)">
      <path
         d="m 16238.3,5630.71 c 0,0 -244.7,-392.41 -521.6,-131.24 -276.9,261.12 -60.6,566.23 211.1,531.72 271.7,-34.51 372.2,-321.33 310.5,-400.48"
         style="fill:#fab8ad;fill-opacity:1;fill-rule:nonzero;stroke:none"
         id="path192"
         inkscape:connector-curvature="0" />
    </g>
    <g
       id="g194"
       transform="matrix(0.06315358,0,0,-0.06315358,-667.75857,616.01238)">
      <path
         d="m 16251.8,6083.36 c -53.4,-45.64 -84.1,-113.45 -81.2,-183.89 3.2,-73.07 45.6,-141.49 107.2,-179.87 22.2,-13.85 1.4,-48.82 -20.9,-34.97 -73.1,45.58 -121.2,124.63 -126.7,210.7 -5.2,81.62 31.3,164.23 93.2,217.08 19.8,16.98 48.4,-12.01 28.4,-29.05 v 0"
         style="fill:#f79c8a;fill-opacity:1;fill-rule:nonzero;stroke:none"
         id="path196"
         inkscape:connector-curvature="0" />
    </g>
    <g
       id="g198"
       transform="matrix(0.07492189,0,0,-0.07492189,-667.75857,616.01238)">
      <path
         d="m 15283.1,4384.13 c 269.5,69.64 426,180.91 576.9,296.17 155.7,118.94 290.8,280.17 354.4,482.35 85.6,272.49 -36.9,1360.83 -170.2,1550.4 -147,209.16 -317.1,353.2 -570.3,391.71 -276.8,42.1 -442.2,42.75 -836.2,-52.55 -394,-95.3 -540.9,-171.53 -767.8,-335.48 -207.6,-150.02 -293.6,-354.52 -328.6,-607.56 -31.6,-229.35 357,-1255.03 557.8,-1458.25 148.9,-150.82 342.7,-232.46 535.6,-267.07 186.9,-33.53 377,-60.93 648.4,0.28"
         style="fill:#fab8ad;fill-opacity:1;fill-rule:nonzero;stroke:none"
         id="path200"
         inkscape:connector-curvature="0" />
    </g>
    <g
       id="g202"
       transform="matrix(0.07454654,0,0,-0.07454654,-667.75857,616.01238)">
      <path
         d="m 14598.2,4548.33 c -754.3,382.42 -811,1494.42 -599.4,2244.02 -19.2,-13.3 -38.8,-27.17 -59,-41.79 -208.6,-150.77 -295.2,-356.3 -330.3,-610.61 -31.8,-230.51 358.8,-1261.35 560.6,-1465.6 149.7,-151.58 344.4,-233.64 538.3,-268.42 187.9,-33.69 378.9,-61.23 651.7,0.29 270.8,69.99 428.1,181.81 579.8,297.66 156.5,119.54 292.3,281.57 356.1,484.78 1.4,4.35 2.7,8.94 4,13.67 -26.4,-37.67 -54.2,-74.72 -84.1,-110.97 -389.3,-458.33 -1082,-830.43 -1617.7,-543.03"
         style="fill:#f79c8a;fill-opacity:1;fill-rule:nonzero;stroke:none"
         id="path204"
         inkscape:connector-curvature="0" />
    </g>
    <g
       id="g206"
       transform="matrix(0.06868654,0,0,-0.06868654,-667.75857,616.01238)">
      <path
         d="m 16117.5,5810.53 c 4.1,6.01 14.9,20.49 25.4,19.46 10.6,-0.97 8.4,-38.98 11.6,-58.75 3.2,-19.73 13.4,-41.5 34.8,-49.21 26.7,-9.55 55,7.55 83.3,4.52 1.9,-0.2 3.8,-0.51 5.7,-0.87 21.7,-15.92 12.1,-36.62 -4.3,-45.71 -10.9,-6.01 -24.3,-7.86 -37.4,-8.68 -28.6,-1.8 -58.5,0.56 -85,11.76 -26.4,11.25 -48.9,32.31 -54.4,57.16 -5.6,24.91 5.7,48.59 20.3,70.32"
         style="fill:#c25c58;fill-opacity:1;fill-rule:nonzero;stroke:none"
         id="path208"
         inkscape:connector-curvature="0" />
    </g>
    <g
       id="g210"
       transform="matrix(0.0728151,0,0,-0.0728151,-667.75857,616.01238)">
      <path
         d="m 16284.1,5499.87 c 15.9,-71.41 -54.8,-148.11 -157.9,-171.22 -103.2,-23.11 -199.8,16.09 -215.7,87.5 -16,71.46 54.7,148.11 157.8,171.22 103.2,23.11 199.8,-16.04 215.8,-87.5"
         style="fill:#d25182;fill-opacity:1;fill-rule:nonzero;stroke:none"
         id="path212"
         inkscape:connector-curvature="0" />
    </g>
    <g
       id="g214"
       transform="matrix(0.06690643,0,0,-0.06690643,-667.75857,616.01238)">
      <path
         d="m 16282.6,5622.22 c 17.4,-77.77 -59.5,-161.19 -171.8,-186.34 -112.3,-25.2 -217.4,17.46 -234.8,95.23 -17.3,77.72 59.6,161.13 171.9,186.33 112.2,25.15 217.3,-17.5 234.7,-95.22"
         style="fill:#d25182;fill-opacity:1;fill-rule:nonzero;stroke:none"
         id="path216"
         inkscape:connector-curvature="0" />
    </g>
    <g
       id="g218"
       transform="matrix(0.0667438,0,0,-0.0667438,-667.75857,616.01238)">
      <path
         d="m 16070.9,5778.96 c 147.8,40.06 229.1,195.24 185.1,353.23 -44,158.04 -194.2,250.48 -342,210.42 -147.8,-40.07 -229.1,-195.25 -185.2,-353.29 44,-158.04 194.3,-250.43 342.1,-210.36"
         style="fill:#ffffff;fill-opacity:1;fill-rule:nonzero;stroke:none"
         id="path220"
         inkscape:connector-curvature="0" />
    </g>
    <g
       id="g222"
       transform="matrix(0.06654412,0,0,-0.06654412,-667.75857,616.01238)">
      <path
         d="m 15818.6,6018.84 c 37.9,-136.04 164.5,-220.33 290.3,-186.24 125.9,34.09 191.1,170.39 153.2,306.42 -37.8,136.09 -164.5,220.38 -290.3,186.24 -125.8,-34.09 -191,-170.39 -153.2,-306.42"
         style="fill:#241715;fill-opacity:1;fill-rule:nonzero;stroke:none"
         id="path224"
         inkscape:connector-curvature="0" />
    </g>
    <g
       id="g226"
       transform="matrix(0.06647145,0,0,-0.06647145,-667.75857,616.01238)">
      <path
         d="m 15938.3,5975.29 c -25.1,90.33 35.5,185.54 135.4,212.6 88.4,23.99 178,-13.42 214.8,-84.96 11.5,-93.2 -24,-181.3 -92.4,-230.82 -9.9,-4.5 -20.4,-8.33 -31.4,-11.3 -99.9,-27.12 -201.3,24.15 -226.4,114.48"
         style="fill:#4c2a23;fill-opacity:1;fill-rule:nonzero;stroke:none"
         id="path228"
         inkscape:connector-curvature="0" />
    </g>
    <g
       id="g230"
       transform="matrix(0.06605553,0,0,-0.06605553,-667.75857,616.01238)">
      <path
         d="m 16140,5990.01 c 13.8,-34.08 57.8,-49.89 98.2,-35.2 40.3,14.63 61.8,54.16 48,88.28 -13.9,34.13 -57.8,49.88 -98.2,35.25 -40.4,-14.69 -61.8,-54.21 -48,-88.33"
         style="fill:#ffffff;fill-opacity:1;fill-rule:nonzero;stroke:none"
         id="path232"
         inkscape:connector-curvature="0" />
    </g>
    <g
       id="g234"
       transform="matrix(0.07246832,0,0,-0.07246832,-667.75857,616.01238)">
      <path
         d="m 16089,5646.42 c 136.1,36.9 211,179.78 170.5,325.33 -40.5,145.56 -178.9,230.65 -315,193.75 -136.2,-36.9 -211.1,-179.78 -170.5,-325.33 40.5,-145.55 178.8,-230.65 315,-193.75"
         style="fill:#ffffff;fill-opacity:1;fill-rule:nonzero;stroke:none"
         id="path236"
         inkscape:connector-curvature="0" />
    </g>
    <g
       id="g238"
       transform="matrix(0.07226865,0,0,-0.07226865,-667.75857,616.01238)">
      <path
         d="m 15856.8,5866.94 c 34.8,-125.31 151.4,-202.92 267.3,-171.49 115.9,31.39 175.9,156.89 141,282.15 -34.9,125.31 -151.4,202.92 -267.3,171.49 -115.8,-31.39 -175.9,-156.89 -141,-282.15"
         style="fill:#241715;fill-opacity:1;fill-rule:nonzero;stroke:none"
         id="path240"
         inkscape:connector-curvature="0" />
    </g>
    <g
       id="g242"
       transform="matrix(0.07219598,0,0,-0.07219598,-667.75857,616.01238)">
      <path
         d="m 15966.9,5826.69 c -23.1,83.17 32.7,170.83 124.7,195.75 81.5,22.09 163.9,-12.36 197.8,-78.23 10.6,-85.81 -22,-166.92 -85.1,-212.51 -9.2,-4.16 -18.7,-7.72 -28.9,-10.46 -92,-24.92 -185.3,22.28 -208.5,105.45"
         style="fill:#4c2a23;fill-opacity:1;fill-rule:nonzero;stroke:none"
         id="path244"
         inkscape:connector-curvature="0" />
    </g>
    <g
       id="g246"
       transform="matrix(0.07167245,0,0,-0.07167245,-667.75857,616.01238)">
      <path
         d="m 16152.5,5849.46 c 12.8,-31.4 53.3,-45.97 90.5,-32.43 37.2,13.48 57,49.91 44.2,81.36 -12.7,31.45 -53.3,45.97 -90.5,32.48 -37.2,-13.53 -57,-49.95 -44.2,-81.41"
         style="fill:#ffffff;fill-opacity:1;fill-rule:nonzero;stroke:none"
         id="path248"
         inkscape:connector-curvature="0" />
    </g>
    <g
       id="g250"
       transform="matrix(0.06600578,0,0,-0.06600578,-667.75857,616.01238)">
      <path
         d="m 15884.2,6305.14 c -9.6,-2.46 -20.3,-0.91 -29.2,5.13 -16.7,11.22 -21.1,33.83 -9.8,50.5 91.6,135.6 256.3,216.25 419.6,205.45 20,-1.33 35.2,-18.65 33.9,-38.7 -1.4,-20.04 -18.7,-35.27 -38.7,-33.93 -138,9.08 -277.1,-59.06 -354.5,-173.54 -5.2,-7.75 -12.9,-12.83 -21.3,-14.91"
         style="fill:#2c1b1b;fill-opacity:1;fill-rule:nonzero;stroke:none"
         id="path252"
         inkscape:connector-curvature="0" />
    </g>
    <g
       id="g254"
       transform="matrix(0.07208203,0,0,-0.07208203,-667.75857,616.01238)">
      <path
         d="m 16270,6207.55 c 9,2.25 16.8,8.12 21.4,16.84 8.6,16.29 2.3,36.46 -14,44.97 -132.6,69.7 -300.4,63.38 -427.4,-16.05 -15.6,-9.79 -20.4,-30.34 -10.6,-45.91 9.8,-15.61 30.3,-20.36 45.9,-10.62 107.3,67.15 249.1,72.49 361.2,13.61 7.5,-3.96 15.9,-4.75 23.5,-2.84"
         style="fill:#2c1b1b;fill-opacity:1;fill-rule:nonzero;stroke:none"
         id="path256"
         inkscape:connector-curvature="0" />
    </g>
    <g
       id="g258"
       transform="matrix(0.07515331,0,0,-0.07515331,-667.75857,616.01238)">
      <path
         d="m 15290.7,7325.78 c -637.7,222.6 -1422.1,-59.57 -1768.6,-636.19 -346.5,-576.58 -182.4,-1289.62 327.4,-1724.86 0,0 -137,600.15 -164.3,839.08 -22.2,193.3 117.6,425.29 117.6,425.29 48.8,-209.69 63.3,-384.92 30.6,-598.32 470.7,139.42 935.2,235.08 1405.9,374.5 -1.7,169.04 -22.2,391.25 2,397.17 48.8,11.88 86.6,-210.62 87.2,-370.46 127.6,39.9 258.7,93.88 320.9,207.95 89,163.03 -6.5,358.77 -100.6,517.29 0,0 152.7,-107.31 286.5,-313.89 136,-210.21 353.4,-741.67 353.4,-741.67 111.3,658.67 -260.4,1401.56 -898,1624.11"
         style="fill:#462729;fill-opacity:1;fill-rule:nonzero;stroke:none"
         id="path260"
         inkscape:connector-curvature="0" />
    </g>
    <g
       id="g262"
       transform="matrix(0.07471869,0,0,-0.07471869,-667.75857,616.01238)">
      <path
         d="m 15566.1,6866.93 c 59.3,-128.38 126.7,-258.69 158.7,-397.73 17.8,-70.64 -59.3,-181.92 -158.1,-184.66 -20.5,-2.17 -41,7.7 -50.1,20.4 -80.7,93.81 -164,335.98 -211.7,316.1 -24,-24.08 -27.5,-57.98 -31.6,-89.05 -32.3,-170.25 17.5,-391.92 -166.7,-471.34 -276.7,-117.65 -956.6,-207.64 -1008.2,-193.58 -31.8,6.99 -68.6,21.77 -77.8,58.5 -34.9,162.37 -81.1,344.29 -127.3,503.83 -15.4,-80.5 -25.1,-161.95 -57.9,-257.79 25.4,56.75 47.7,93.72 47.7,93.72 49.1,-210.91 63.6,-387.16 30.7,-601.8 473.5,140.23 940.7,236.45 1414.1,376.68 -1.7,170.02 -22.3,393.53 2.1,399.48 49,11.94 87.1,-211.85 87.6,-372.62 128.4,40.14 260.3,94.43 322.9,209.16 89.4,163.98 -6.6,360.86 -101.3,520.3 0,0 153.7,-107.93 288.2,-315.72 136.8,-211.42 355.5,-745.98 355.5,-745.98 17.1,101.37 -199.1,693.34 -331.8,871.62 -87.7,122.05 -264,238.9 -385,260.48"
         style="fill:#3c2223;fill-opacity:1;fill-rule:nonzero;stroke:none"
         id="path264"
         inkscape:connector-curvature="0" />
    </g>
    <g
       id="g266"
       transform="matrix(0.0668902,0,0,-0.0668902,-667.75857,616.01238)">
      <path
         d="m 16238,6750.86 c 22.4,71.68 38.6,145.2 48.6,219.61 9.8,73.94 13.4,148.73 10.4,223.25 -1.6,42.67 -5.4,85.23 -11.2,127.47 -1,7.28 -9.9,11.5 -16.4,9.87 -7.8,-1.96 -10.9,-9.18 -9.9,-16.46 9.9,-72.36 13.3,-145.61 10.6,-218.55 -2.7,-73.05 -11.5,-145.83 -26.6,-217.34 -8.6,-40.61 -19.1,-80.75 -31.6,-120.3 -5.2,-16.72 20.9,-24.21 26.1,-7.55 v 0"
         style="fill:#2c1b1b;fill-opacity:1;fill-rule:nonzero;stroke:none"
         id="path268"
         inkscape:connector-curvature="0" />
    </g>
    <g
       id="g270"
       transform="matrix(0.06946653,0,0,-0.06946653,-667.75857,616.01238)">
      <path
         d="m 16299.5,6623.72 c -7.1,102.08 -28.3,202.98 -63.1,299.22 -34.6,95.93 -81.8,187.24 -140.9,270.42 -33.4,47.03 -70.2,91.46 -110.5,132.65 -11.7,12.04 -30.4,-6.2 -18.6,-18.23 69.7,-71.41 129,-152.35 176.7,-240.01 47.6,-87.6 83.2,-181.45 105.6,-278.6 12.5,-54.23 20.9,-109.33 24.7,-164.84 0.5,-7.01 5.3,-13.2 12.8,-13.35 6.5,-0.16 13.8,5.68 13.3,12.74 v 0"
         style="fill:#2c1b1b;fill-opacity:1;fill-rule:nonzero;stroke:none"
         id="path272"
         inkscape:connector-curvature="0" />
    </g>
    <g
       id="g274"
       transform="matrix(0.07207674,0,0,-0.07207674,-667.75857,616.01238)">
      <path
         d="m 15887.7,6743.79 c -19.9,-24.08 -19.2,-60.98 -20.2,-91.47 -6.9,-127.06 14.6,-246.98 -5.6,-373.06 -469.4,-109.44 -930.8,-231.31 -1397.2,-352.94 5.2,363.66 -25.2,552.83 -72.2,834.56 14.2,-118.35 65.4,-667.27 31.3,-889.77 490.8,145.37 975.1,245.12 1465.9,390.48 -1.8,176.25 -23.2,407.96 2.2,414.12 50.8,12.39 90.3,-219.61 90.8,-386.27 122.2,38.23 247.4,88.84 317.3,188.93 -74.9,-67.69 -174.7,-106.95 -273.5,-131.76 -8.3,136.16 -22.8,314.03 -138.8,397.18"
         style="fill:#2c1b1b;fill-opacity:1;fill-rule:nonzero;stroke:none"
         id="path276"
         inkscape:connector-curvature="0" />
    </g>
    <g
       id="g278"
       transform="matrix(0.07256392,0,0,-0.07256392,-667.75857,616.01238)">
      <path
         d="m 15953.5,7178.33 c 11.1,-32.33 27.1,-60.43 43.2,-88.58 130.9,-190.96 237.9,-417.42 198.1,-648.73 4.6,6.95 9,14.15 13.1,21.58 92.1,168.85 -193.7,656.27 -254.4,715.73"
         style="fill:#2c1b1b;fill-opacity:1;fill-rule:nonzero;stroke:none"
         id="path280"
         inkscape:connector-curvature="0" />
    </g>
    <g
       id="g282"
       transform="matrix(0.07076017,0,0,-0.07076017,-667.75857,616.01238)">
      <path
         d="m 16250.7,7612.78 -62.6,19.3 c -20.8,6.38 -44.4,17.4 -66.3,17.2 -23.5,-0.2 -35.9,-11.27 -42.2,-26.98 -5.8,3.59 -11.8,6.98 -17.9,10.03 -31.4,15.9 -79.6,38.43 -109.5,8.42 -2.8,-2.94 -5.1,-5.98 -6.8,-9.22 -15,19.24 -31,37.84 -48.1,55.59 -22.4,23.33 -72.3,6.73 -68.3,-28.62 4.1,-36.5 10.1,-72.39 18.1,-107.74 -1.5,-2.64 -2.8,-5.48 -3.7,-8.52 -12.1,5.63 -25.1,9.37 -39,10.57 -73.4,6.08 -124.6,-87.7 -82,-113.47 16.9,-10.28 86.6,41.28 125.8,-0.15 9.7,-10.32 22.9,-13.02 34.9,-10.67 5.8,-15.91 12.1,-31.71 18.8,-47.42 7.6,-18.09 33.4,-23.93 49.9,-16.85 18.1,7.78 28.9,27.47 23.6,47.12 -2.6,9.42 -5.4,18.74 -8.5,28.06 6.2,-14.7 12,-29.66 17.1,-44.92 16.4,-48.85 88.4,-30.01 77.5,20.65 -7.4,34.15 -14.8,68.25 -22.1,102.35 -3,13.71 -6.3,27.42 -9.6,41.23 3.3,-1.94 6.3,-3.79 9,-5.39 18.5,-11.26 33.9,-25.77 48,-42.07 23,-26.58 69.4,-4.69 68.4,28.56 -0.2,6.23 -0.4,12.47 -0.6,18.7 5.7,-1.74 11.4,-3.49 17.1,-5.23 19.6,-6.09 39.3,-12.12 59,-18.2 49.3,-15.16 69.3,62.47 20,77.67"
         style="fill:#744247;fill-opacity:1;fill-rule:nonzero;stroke:none"
         id="path284"
         inkscape:connector-curvature="0" />
    </g>
    <g
       id="g286"
       transform="matrix(0.0671569,0,0,-0.0671569,-667.75857,616.01238)">
      <path
         d="m 16215.3,7911.77 c -18.4,-6.51 -36.7,-13.02 -55.1,-19.54 -16.8,-5.93 -34.3,-14.23 -51.7,-18.64 -0.1,0.1 -0.2,0.2 -0.3,0.36 -3.4,3.78 -8.4,6.67 -12.7,9.35 -15.9,9.98 -34,14.4 -52.7,12.5 -29.3,-2.99 -55.3,-21.01 -76.6,-40.23 -8.3,-7.46 -16.5,-15.82 -26.3,-21.22 -1.6,-0.9 -8.8,-3.89 -9.5,-4.21 -0.2,-0.1 -0.4,-0.21 -0.7,-0.31 -21.6,15.97 -55.2,7.14 -64.5,-18.81 l -27.2,-75.64 c -14.1,32.41 -37.8,56.73 -74.3,61.67 -12.1,1.63 -25.5,-3.52 -34.8,-12.45 -2.5,14.18 -5.1,28.42 -7.7,42.6 -8.2,45.44 -81.2,47.96 -83.8,-1.73 -0.8,-16.6 -1.6,-33.2 -2.5,-49.8 -21.3,-1.79 -34,-16.81 -38.8,-37.19 -2.5,-10.77 -4.8,-21.54 -7.1,-32.36 -11.7,3.47 -25.2,1.68 -37.9,-6.57 -17.8,-11.5 -27.4,-31.2 -30.3,-51.64 -2.2,-15.7 1.5,-33.83 -0.1,-47.54 -4.8,-38.76 -65.4,-36.03 -93.4,-36.93 -22.8,-0.73 -38.6,-27.36 -35.5,-48.06 3.7,-24.74 25.2,-36.25 48,-35.51 48.1,1.52 98.4,9.3 132.9,43.81 7.6,-12.29 19.9,-20.49 36.1,-19.91 5.9,0.21 11.6,1.68 16.9,4.15 12.3,-27.74 54,-31.15 72.1,-9.56 5.3,-14.81 12.8,-28.68 24.2,-40.13 12.2,-12.35 27,-19.55 44.7,-14.24 15,4.52 30.3,18.81 30.5,35.77 0.7,45.86 1.3,91.67 2,137.48 6,-7.57 12.9,-14.5 21,-20.49 21.7,-15.97 55.2,-7.2 64.5,18.81 15.6,43.44 31.2,86.88 46.9,130.32 15.8,0.58 31.8,5.36 46.5,13.45 13.1,7.25 24.7,15.71 35.8,25.64 8,7.19 23.7,26.31 35.5,26.31 3.3,0 11.6,-7.98 16.9,-11.4 16.7,-10.71 35.4,-14.28 54.9,-10.03 43.1,9.4 85.9,29.52 127.4,44.23 51.4,18.23 17.7,95.76 -33.3,77.69"
         style="fill:#744247;fill-opacity:1;fill-rule:nonzero;stroke:none"
         id="path288"
         inkscape:connector-curvature="0" />
    </g>
    <g
       id="g290"
       transform="matrix(0.07043173,0,0,-0.07043173,-667.75857,616.01238)">
      <path
         d="m 15956.9,5363.46 c -109.7,-27.65 -225.6,-31.1 -337.2,-7.51 -11,2.35 -18,13.17 -15.7,24.14 2.3,11.02 13.1,18.08 24.1,15.73 225.1,-47.64 468.5,21.24 635.3,179.71 8.2,7.77 21.1,7.42 28.8,-0.75 7.8,-8.16 7.4,-21.04 -0.7,-28.8 -93.7,-88.95 -210.2,-151.26 -334.6,-182.52"
         style="fill:#ac3138;fill-opacity:1;fill-rule:nonzero;stroke:none"
         id="path292"
         inkscape:connector-curvature="0" />
    </g>
    <g
       id="g294"
       transform="matrix(0.07381629,0,0,-0.07381629,-667.75857,616.01238)">
      <path
         d="m 16300,1119.8 c -654.7,-97.64 -1304.4,-99.93 -1959,-2.29 l 24.9,252 c 626.8,-93.48 1908.2,0 1908.2,0 l 25.9,-249.71"
         style="fill:#a97343;fill-opacity:1;fill-rule:nonzero;stroke:none"
         id="path296"
         inkscape:connector-curvature="0" />
    </g>
    <g
       id="g298"
       transform="matrix(0.07043032,0,0,-0.07043032,-667.75857,616.01238)">
      <path
         d="m 16300,1091.44 h -510.8 v 319.26 h 510.8 v -319.26"
         style="fill:#f7b81b;fill-opacity:1;fill-rule:nonzero;stroke:none"
         id="path300"
         inkscape:connector-curvature="0" />
    </g>
    <g
       id="g302"
       transform="matrix(0.06787233,0,0,-0.06787233,-667.75857,616.01238)">
      <path
         d="m 16300,3224.58 h -561.7 v 119.96 h 561.7 v -119.96"
         style="fill:#1b1918;fill-opacity:1;fill-rule:nonzero;stroke:none"
         id="path304"
         inkscape:connector-curvature="0" />
    </g>
    <g
       id="g306"
       transform="matrix(0.07469117,0,0,-0.07469117,-667.75857,616.01238)">
      <path
         d="m 16194.9,1427.24 c 29.6,-34 -14.2,-71.03 -122.3,-88.74 -602.4,-98.58 -1309.5,-65.75 -1841.3,-24.57 -98.8,7.66 -199.3,45.25 -171.9,81.39 62.1,82.13 57.9,1011.84 84.6,1338.11 -52.4,414.41 -190.9,1182.83 -190.9,1182.83 0,0 500.4,192.75 789.9,282.34 l 400.4,-865.56 458.4,882.95 c 107.3,-57.67 493.2,-242.58 689.7,-294.68 8.5,-411.48 -150.5,-1015.53 -152,-1123.26 -2.3,-158.42 -24.5,-1278.89 55.4,-1370.81"
         style="fill:#cd985f;fill-opacity:1;fill-rule:nonzero;stroke:none"
         id="path308"
         inkscape:connector-curvature="0" />
    </g>
    <g
       id="g310"
       transform="matrix(0.07456559,0,0,-0.07456559,-667.75857,616.01238)">
      <path
         d="m 16166.6,2802.75 c 1.2,81.71 92.7,448.18 133.4,800.22 -62.9,-193.22 -134,-463.08 -163.8,-672.34 -76.8,-537.54 40.9,-946.69 -50.1,-1462.9 -9.9,-56.35 -36.4,-102 -73.8,-140.18 29.2,4.16 58.4,8.46 87.3,13.19 108.3,17.75 152.1,54.84 122.5,88.9 -80,92.07 -57.7,1214.43 -55.5,1373.11"
         style="fill:#b68149;fill-opacity:1;fill-rule:nonzero;stroke:none"
         id="path312"
         inkscape:connector-curvature="0" />
    </g>
    <g
       id="g314"
       transform="matrix(0.06931555,0,0,-0.06931555,-667.75857,616.01238)">
      <path
         d="m 15322.9,1764.01 c -108.9,522.63 10.9,1023.48 -76.2,1556.96 -22.9,167.9 -83.2,314.38 -136,465.74 45.7,-269.34 100.7,-607.53 130.2,-841.29 -28.7,-351.58 -24.2,-1353.39 -91.2,-1441.89 -29.4,-38.94 78.8,-79.45 185.3,-87.7 286.9,-22.23 621.2,-42.19 965,-43.26 -96.5,7.33 -193.6,17.16 -291.2,32.17 -272.2,43.52 -631.5,65.3 -685.9,359.27"
         style="fill:#b68149;fill-opacity:1;fill-rule:nonzero;stroke:none"
         id="path316"
         inkscape:connector-curvature="0" />
    </g>
    <g
       id="g318"
       transform="matrix(0.07193774,0,0,-0.07193774,-667.75857,616.01238)">
      <path
         d="m 16300,3100.06 h -258 v 62.38 h 258 v -62.38"
         style="fill:#2c6c30;fill-opacity:1;fill-rule:nonzero;stroke:none"
         id="path320"
         inkscape:connector-curvature="0" />
    </g>
    <g
       id="g322"
       transform="matrix(0.07307616,0,0,-0.07307616,-667.75857,616.01238)">
      <path
         d="m 16300,3051.77 h -253.9 v 61.41 h 253.9 v -61.41"
         style="fill:#fab789;fill-opacity:1;fill-rule:nonzero;stroke:none"
         id="path324"
         inkscape:connector-curvature="0" />
    </g>
    <g
       id="g326"
       transform="matrix(0.07215964,0,0,-0.07215964,-667.75857,616.01238)">
      <path
         d="m 16300,3090.53 h -50.1 v 62.19 h 50.1 v -62.19"
         style="fill:#59c6a9;fill-opacity:1;fill-rule:nonzero;stroke:none"
         id="path328"
         inkscape:connector-curvature="0" />
    </g>
    <g
       id="g330"
       transform="matrix(0.07254805,0,0,-0.07254805,-667.75857,616.01238)">
      <path
         d="m 16300,3074.32 h -49.8 v 61.86 h 49.8 v -61.86"
         style="fill:#f36542;fill-opacity:1;fill-rule:nonzero;stroke:none"
         id="path332"
         inkscape:connector-curvature="0" />
    </g>
    <g
       id="g334"
       transform="matrix(0.07295939,0,0,-0.07295939,-667.75857,616.01238)">
      <path
         d="m 16300,3057.01 h -49.6 v 61.5 h 49.6 v -61.5"
         style="fill:#c6ce74;fill-opacity:1;fill-rule:nonzero;stroke:none"
         id="path336"
         inkscape:connector-curvature="0" />
    </g>
    <g
       id="g338"
       transform="matrix(0.07193774,0,0,-0.07193774,-667.75857,616.01238)">
      <path
         d="m 16300,3037.68 h -258 v 62.38 h 258 v -62.38"
         style="fill:#f36542;fill-opacity:1;fill-rule:nonzero;stroke:none"
         id="path340"
         inkscape:connector-curvature="0" />
    </g>
    <g
       id="g342"
       transform="matrix(0.07238154,0,0,-0.07238154,-667.75857,616.01238)">
      <path
         d="m 16300,3019.06 h -99.9 v 62 h 99.9 v -62"
         style="fill:#b1dcbe;fill-opacity:1;fill-rule:nonzero;stroke:none"
         id="path344"
         inkscape:connector-curvature="0" />
    </g>
    <g
       id="g346"
       transform="matrix(0.07282533,0,0,-0.07282533,-667.75857,616.01238)">
      <path
         d="m 16300,3000.66 h -99.4 v 61.62 h 99.4 v -61.62"
         style="fill:#cbcac8;fill-opacity:1;fill-rule:nonzero;stroke:none"
         id="path348"
         inkscape:connector-curvature="0" />
    </g>
    <g
       id="g350"
       transform="matrix(0.07307616,0,0,-0.07307616,-667.75857,616.01238)">
      <path
         d="m 16300,2990.36 h -56 v 61.41 h 56 v -61.41"
         style="fill:#89c16c;fill-opacity:1;fill-rule:nonzero;stroke:none"
         id="path352"
         inkscape:connector-curvature="0" />
    </g>
    <g
       id="g354"
       transform="matrix(0.06946548,0,0,-0.06946548,-667.75857,616.01238)">
      <path
         d="m 16262.2,3193.9 c -20.9,0 -37.9,17.01 -37.9,37.89 0,20.87 17,37.83 37.9,37.83 20.8,0 37.8,-16.96 37.8,-37.83 0,-20.88 -17,-37.89 -37.8,-37.89"
         style="fill:#e5d3ca;fill-opacity:1;fill-rule:nonzero;stroke:none"
         id="path356"
         inkscape:connector-curvature="0" />
    </g>
    <g
       id="g358"
       transform="matrix(0.06941256,0,0,-0.06941256,-667.75857,616.01238)">
      <path
         d="m 16300,3234.25 c 0,-14.02 -11.4,-25.41 -25.4,-25.41 -14,0 -25.4,11.39 -25.4,25.41 0,14.03 11.4,25.42 25.4,25.42 14,0 25.4,-11.39 25.4,-25.42"
         style="fill:#be956d;fill-opacity:1;fill-rule:nonzero;stroke:none"
         id="path360"
         inkscape:connector-curvature="0" />
    </g>
    <g
       id="g362"
       transform="matrix(0.06946548,0,0,-0.06946548,-667.75857,616.01238)">
      <path
         d="m 16262.2,2686.36 c -20.9,0 -37.9,16.96 -37.9,37.83 0,20.93 17,37.89 37.9,37.89 20.8,0 37.8,-16.96 37.8,-37.89 0,-20.87 -17,-37.83 -37.8,-37.83"
         style="fill:#e5d3ca;fill-opacity:1;fill-rule:nonzero;stroke:none"
         id="path364"
         inkscape:connector-curvature="0" />
    </g>
    <g
       id="g366"
       transform="matrix(0.06941256,0,0,-0.06941256,-667.75857,616.01238)">
      <path
         d="m 16300,2726.27 c 0,-14.02 -11.4,-25.41 -25.4,-25.41 -14,0 -25.4,11.39 -25.4,25.41 0,14.08 11.4,25.41 25.4,25.41 14,0 25.4,-11.33 25.4,-25.41"
         style="fill:#be956d;fill-opacity:1;fill-rule:nonzero;stroke:none"
         id="path368"
         inkscape:connector-curvature="0" />
    </g>
    <g
       id="g370"
       transform="matrix(0.06946548,0,0,-0.06946548,-667.75857,616.01238)">
      <path
         d="m 16262.2,2178.82 c -20.9,0 -37.9,16.96 -37.9,37.83 0,20.87 17,37.88 37.9,37.88 20.8,0 37.8,-17.01 37.8,-37.88 0,-20.87 -17,-37.83 -37.8,-37.83"
         style="fill:#e5d3ca;fill-opacity:1;fill-rule:nonzero;stroke:none"
         id="path372"
         inkscape:connector-curvature="0" />
    </g>
    <g
       id="g374"
       transform="matrix(0.06941256,0,0,-0.06941256,-667.75857,616.01238)">
      <path
         d="m 16300,2218.34 c 0,-14.03 -11.4,-25.41 -25.4,-25.41 -14,0 -25.4,11.38 -25.4,25.41 0,14.03 11.4,25.41 25.4,25.41 14,0 25.4,-11.38 25.4,-25.41"
         style="fill:#be956d;fill-opacity:1;fill-rule:nonzero;stroke:none"
         id="path376"
         inkscape:connector-curvature="0" />
    </g>
    <g
       id="g378"
       transform="matrix(0.06946548,0,0,-0.06946548,-667.75857,616.01238)">
      <path
         d="m 16262.2,1671.22 c -20.9,0 -37.9,17.02 -37.9,37.89 0,20.87 17,37.83 37.9,37.83 20.8,0 37.8,-16.96 37.8,-37.83 0,-20.87 -17,-37.89 -37.8,-37.89"
         style="fill:#e5d3ca;fill-opacity:1;fill-rule:nonzero;stroke:none"
         id="path380"
         inkscape:connector-curvature="0" />
    </g>
    <g
       id="g382"
       transform="matrix(0.06941256,0,0,-0.06941256,-667.75857,616.01238)">
      <path
         d="m 16300,1710.41 c 0,-14.08 -11.4,-25.41 -25.4,-25.41 -14,0 -25.4,11.33 -25.4,25.41 0,14.03 11.4,25.42 25.4,25.42 14,0 25.4,-11.39 25.4,-25.42"
         style="fill:#be956d;fill-opacity:1;fill-rule:nonzero;stroke:none"
         id="path384"
         inkscape:connector-curvature="0" />
    </g>
    <g
       id="g386"
       transform="matrix(0.06967291,0,0,-0.06967291,-667.75857,616.01238)">
      <path
         d="m 16300,1394.14 h -17.2 v 2215.41 h 17.2 V 1394.14"
         style="fill:#a97343;fill-opacity:1;fill-rule:nonzero;stroke:none"
         id="path388"
         inkscape:connector-curvature="0" />
    </g>
    <g
       id="g390"
       transform="matrix(0.06906543,0,0,-0.06906543,-667.75857,616.01238)">
      <path
         d="m 16300,1406.4 h -17.4 v 2234.9 h 17.4 V 1406.4"
         style="fill:#a97343;fill-opacity:1;fill-rule:nonzero;stroke:none"
         id="path392"
         inkscape:connector-curvature="0" />
    </g>
    <g
       id="g394"
       transform="matrix(0.07353195,0,0,-0.07353195,-667.75857,616.01238)">
      <path
         d="m 15665.3,2901.25 c -5.5,-35.64 -9.3,-65.82 -5.9,-96.67 3.5,-31.57 15.4,-59.54 33.5,-78.82 l 1.6,-1.73 v -360.92 c 0,-85.59 69.7,-155.2 155.2,-155.2 h 243.9 c 85.5,0 155.1,69.61 155.1,155.2 v 360.3 l 1.6,1.72 c 3.7,3.8 7,7.87 10,12.05 12.9,18.23 21.2,41.54 24.1,67.4 3,27.92 -3.7,80.27 -6,96.67 z m 428.3,-705.19 h -243.9 c -92.1,0 -167.1,74.93 -167.1,167.05 v 356.27 c -19,21.01 -31.4,50.71 -35,83.91 -4.1,36.41 1.9,74.36 6.8,104.83 l 0.8,4.98 h 633.4 l 0.8,-5.03 c 0.4,-2.83 10.6,-70.05 6.8,-104.83 -3.1,-27.83 -12.2,-53.01 -26.2,-72.92 -2.9,-4.03 -6,-7.92 -9.4,-11.61 v -355.6 c 0,-92.12 -74.9,-167.05 -167,-167.05"
         style="fill:#a97343;fill-opacity:1;fill-rule:nonzero;stroke:none"
         id="path396"
         inkscape:connector-curvature="0" />
    </g>
    <g
       id="g398"
       transform="matrix(0.07222067,0,0,-0.07222067,-667.75857,616.01238)">
      <path
         d="m 16261.7,2739.7 c -21.1,0 -38.3,17.14 -38.3,38.3 0,21.1 17.2,38.29 38.3,38.29 21.1,0 38.3,-17.19 38.3,-38.29 0,-21.16 -17.2,-38.3 -38.3,-38.3"
         style="fill:#e8d7c6;fill-opacity:1;fill-rule:nonzero;stroke:none"
         id="path400"
         inkscape:connector-curvature="0" />
    </g>
    <g
       id="g402"
       transform="matrix(0.07216458,0,0,-0.07216458,-667.75857,616.01238)">
      <path
         d="m 16300,2780.15 c 0,-14.22 -11.5,-25.71 -25.7,-25.71 -14.2,0 -25.7,11.49 -25.7,25.71 0,14.18 11.5,25.72 25.7,25.72 14.2,0 25.7,-11.54 25.7,-25.72"
         style="fill:#be956d;fill-opacity:1;fill-rule:nonzero;stroke:none"
         id="path404"
         inkscape:connector-curvature="0" />
    </g>
    <g
       id="g406"
       transform="matrix(0.07319892,0,0,-0.07319892,-667.75857,616.01238)">
      <path
         d="m 16044.3,2657.35 -1.5,0.38 -258.8,67.96 c -3.1,0.82 -5,4.09 -4.2,7.28 0.8,3.18 4.1,5.1 7.3,4.24 l 257.3,-67.53 247.6,62.95 c 3.2,0.82 6.4,-1.16 7.2,-4.34 0.8,-3.18 -1.1,-6.41 -4.3,-7.23 l -250.6,-63.71"
         style="fill:#b68149;fill-opacity:1;fill-rule:nonzero;stroke:none"
         id="path408"
         inkscape:connector-curvature="0" />
    </g>
    <g
       id="g410"
       transform="matrix(0.07236072,0,0,-0.07236072,-667.75857,616.01238)">
      <path
         d="m 16300,2237.65 h -9.1 v 456.72 h 9.1 v -456.72"
         style="fill:#b68149;fill-opacity:1;fill-rule:nonzero;stroke:none"
         id="path412"
         inkscape:connector-curvature="0" />
    </g>
    <g
       id="g414"
       transform="matrix(0.07176982,0,0,-0.07176982,-667.75857,616.01238)">
      <path
         d="m 16300,2256.08 h -9.1 v 460.47 h 9.1 v -460.47"
         style="fill:#b68149;fill-opacity:1;fill-rule:nonzero;stroke:none"
         id="path416"
         inkscape:connector-curvature="0" />
    </g>
    <g
       id="g418"
       transform="matrix(0.06818419,0,0,-0.06818419,-667.75857,616.01238)">
      <path
         d="m 15615.5,3128.81 c -6,-38.44 -10,-70.98 -6.4,-104.25 3.8,-34.05 16.6,-64.21 36.2,-85.01 l 1.7,-1.86 v -389.23 c 0,-92.31 75.1,-167.38 167.4,-167.38 h 263 c 92.2,0 167.3,75.07 167.3,167.38 v 388.56 l 1.8,1.86 c 3.9,4.09 7.5,8.48 10.7,12.98 13.9,19.66 22.8,44.81 25.9,72.7 3.3,30.11 -4,86.56 -6.5,104.25 z m 461.9,-760.51 h -263 c -99.4,0 -180.2,80.82 -180.2,180.16 v 384.21 c -20.5,22.66 -33.9,54.69 -37.8,90.49 -4.3,39.27 2.1,80.2 7.3,113.05 l 0.9,5.38 h 683 l 0.9,-5.43 c 0.5,-3.05 11.5,-75.54 7.4,-113.05 -3.3,-30.01 -13.1,-57.17 -28.3,-78.65 -3,-4.34 -6.5,-8.53 -10.1,-12.52 v -383.48 c 0,-99.34 -80.8,-180.16 -180.1,-180.16"
         style="fill:#a97343;fill-opacity:1;fill-rule:nonzero;stroke:none"
         id="path420"
         inkscape:connector-curvature="0" />
    </g>
    <g
       id="g422"
       transform="matrix(0.06687256,0,0,-0.06687256,-667.75857,616.01238)">
      <path
         d="m 16258.6,2958.81 c -22.7,0 -41.3,18.51 -41.3,41.36 0,22.79 18.6,41.35 41.3,41.35 22.9,0 41.4,-18.56 41.4,-41.35 0,-22.85 -18.5,-41.36 -41.4,-41.36"
         style="fill:#e8d7c6;fill-opacity:1;fill-rule:nonzero;stroke:none"
         id="path424"
         inkscape:connector-curvature="0" />
    </g>
    <g
       id="g426"
       transform="matrix(0.06681647,0,0,-0.06681647,-667.75857,616.01238)">
      <path
         d="m 16300,3002.67 c 0,-15.36 -12.4,-27.77 -27.8,-27.77 -15.3,0 -27.7,12.41 -27.7,27.77 0,15.32 12.4,27.77 27.7,27.77 15.4,0 27.8,-12.45 27.8,-27.77"
         style="fill:#be956d;fill-opacity:1;fill-rule:nonzero;stroke:none"
         id="path428"
         inkscape:connector-curvature="0" />
    </g>
    <g
       id="g430"
       transform="matrix(0.06785081,0,0,-0.06785081,-667.75857,616.01238)">
      <path
         d="m 16024.2,2866.8 -1.6,0.41 -279.2,73.31 c -3.5,0.89 -5.5,4.42 -4.6,7.86 0.9,3.43 4.4,5.51 7.8,4.57 l 277.6,-72.84 267.1,67.9 c 3.4,0.88 6.9,-1.25 7.8,-4.68 0.9,-3.43 -1.2,-6.91 -4.6,-7.8 l -270.3,-68.73"
         style="fill:#b68149;fill-opacity:1;fill-rule:nonzero;stroke:none"
         id="path432"
         inkscape:connector-curvature="0" />
    </g>
    <g
       id="g434"
       transform="matrix(0.06701261,0,0,-0.06701261,-667.75857,616.01238)">
      <path
         d="m 16300,2416.23 h -9.8 v 493.17 h 9.8 v -493.17"
         style="fill:#b68149;fill-opacity:1;fill-rule:nonzero;stroke:none"
         id="path436"
         inkscape:connector-curvature="0" />
    </g>
    <g
       id="g438"
       transform="matrix(0.06642171,0,0,-0.06642171,-667.75857,616.01238)">
      <path
         d="m 16300,2437.72 h -9.9 v 497.56 h 9.9 v -497.56"
         style="fill:#b68149;fill-opacity:1;fill-rule:nonzero;stroke:none"
         id="path440"
         inkscape:connector-curvature="0" />
    </g>
    <g
       id="g442"
       transform="matrix(0.07192892,0,0,-0.07192892,-667.75857,616.01238)">
      <path
         d="m 15724.9,3461.03 382.6,364.99 -80.3,100.3 c 0,0 38.1,0 106.6,-17.26 68.6,-17.22 157.6,-186.67 157.6,-186.67 0,0 8.6,439.4 0,545.68 -8.7,106.28 -188.6,201.77 -188.6,201.77 0,0 0,-108.44 0,-132.86 0,-24.38 -377.9,-875.95 -377.9,-875.95"
         style="fill:#a97343;fill-opacity:1;fill-rule:nonzero;stroke:none"
         id="path444"
         inkscape:connector-curvature="0" />
    </g>
    <g
       id="g446"
       transform="matrix(0.06939104,0,0,-0.06939104,-667.75857,616.01238)">
      <path
         d="m 16300,3587.62 -396.6,378.34 83.3,103.97 c 0,0 -39.5,0 -110.5,-17.9 -71.1,-17.84 -163.3,-193.49 -163.3,-193.49 0,0 -9,455.47 0,565.64 8.9,110.16 188.8,209.15 188.8,209.15 0,0 0,-112.41 0,-137.72 0,-25.27 398.3,-907.99 398.3,-907.99"
         style="fill:#a97343;fill-opacity:1;fill-rule:nonzero;stroke:none"
         id="path448"
         inkscape:connector-curvature="0" />
    </g>
    <g
       id="g450"
       transform="matrix(0.0715892,0,0,-0.0715892,-667.75857,616.01238)">
      <path
         d="m 16295.5,3992.61 c -4.6,-17.6 -22.5,-28.19 -40.1,-23.66 -17.6,4.49 -28.2,22.47 -23.8,40.07 4.6,17.59 22.6,28.23 40.2,23.7 17.6,-4.54 28.2,-22.47 23.7,-40.11"
         style="fill:#f7b81b;fill-opacity:1;fill-rule:nonzero;stroke:none"
         id="path452"
         inkscape:connector-curvature="0" />
    </g>
    <g
       id="g454"
       transform="matrix(0.07159802,0,0,-0.07159802,-667.75857,616.01238)">
      <path
         d="m 16237.9,4016.56 c 2.4,10.5 4.8,21.04 7.2,31.54 0.4,1.52 0.7,3.15 1.7,4.38 1.3,1.63 3.4,2.37 5.5,2.42 1.8,0.05 3.6,-0.35 5.3,-0.79 2.5,9.81 5.1,19.56 7.6,29.37 6.5,2.21 13,4.43 19.5,6.65 4.6,-5.08 9.2,-10.15 13.9,-15.23 -2.5,-9.8 -5.1,-19.61 -7.6,-29.36 1.8,-0.45 3.5,-0.94 5.1,-1.88 1.7,-1.03 3.3,-2.75 3.6,-4.78 0.3,-1.57 -0.1,-3.15 -0.6,-4.68 -2.9,-10.34 -5.9,-20.74 -8.9,-31.09 l -52.3,13.45"
         style="fill:#f7b81b;fill-opacity:1;fill-rule:nonzero;stroke:none"
         id="path456"
         inkscape:connector-curvature="0" />
    </g>
    <g
       id="g458"
       transform="matrix(0.06749168,0,0,-0.06749168,-667.75857,616.01238)">
      <path
         d="m 16227.5,4235.01 c 4.8,-18.66 23.9,-29.9 42.5,-25.09 18.7,4.76 30,23.84 25.2,42.5 -4.8,18.66 -23.8,29.95 -42.6,25.14 -18.6,-4.81 -29.9,-23.84 -25.1,-42.55"
         style="fill:#f7b81b;fill-opacity:1;fill-rule:nonzero;stroke:none"
         id="path460"
         inkscape:connector-curvature="0" />
    </g>
    <g
       id="g462"
       transform="matrix(0.06743559,0,0,-0.06743559,-667.75857,616.01238)">
      <path
         d="m 16300,4264.47 c -2.6,11.14 -5.1,22.33 -7.6,33.48 -0.4,1.62 -0.8,3.34 -1.9,4.65 -1.3,1.73 -3.6,2.51 -5.8,2.57 -1.9,0.05 -3.8,-0.37 -5.7,-0.84 -2.6,10.41 -5.3,20.77 -8,31.18 -6.9,2.35 -13.8,4.71 -20.7,7.06 -4.9,-5.39 -9.8,-10.78 -14.7,-16.17 2.6,-10.41 5.3,-20.82 8,-31.17 -1.9,-0.48 -3.7,-1 -5.4,-1.99 -1.9,-1.1 -3.5,-2.93 -3.9,-5.08 -0.2,-1.67 0.3,-3.34 0.7,-4.97 3.2,-10.98 6.3,-22.02 9.4,-33.01 l 55.6,14.29"
         style="fill:#f7b81b;fill-opacity:1;fill-rule:nonzero;stroke:none"
         id="path464"
         inkscape:connector-curvature="0" />
    </g>
    <g
       id="g466"
       transform="matrix(0.06831824,0,0,-0.06831824,-667.75857,616.01238)">
      <path
         d="m 16066.2,1981.02 c 0,0 -1073.4,24.22 -1494.6,193.75 -163.8,65.94 -138.5,323.82 -29.8,411.7 64.1,51.79 187.3,114.07 336.1,124.09 148.7,10.01 1123.9,-409.13 1222.3,-451.16 98.4,-42.03 199.8,-175.36 -34,-278.38"
         style="fill:#fab8ad;fill-opacity:1;fill-rule:nonzero;stroke:none"
         id="path468"
         inkscape:connector-curvature="0" />
    </g>
    <g
       id="g470"
       transform="matrix(0.06845053,0,0,-0.06845053,-667.75857,616.01238)">
      <path
         d="m 16066.3,2486.02 c 0,0 100.9,78.18 145.1,60.97 44.2,-17.32 88.6,-161.26 88.6,-161.26 l -233.7,100.29"
         style="fill:#f79c8a;fill-opacity:1;fill-rule:nonzero;stroke:none"
         id="path472"
         inkscape:connector-curvature="0" />
    </g>
    <g
       id="g474"
       transform="matrix(0.06960235,0,0,-0.06960235,-667.75857,616.01238)">
      <path
         d="m 16280.8,1948.12 19.2,-111.81 -103.3,46.43 -562.7,843.4 84,65.43 562.8,-843.45"
         style="fill:#232221;fill-opacity:1;fill-rule:nonzero;stroke:none"
         id="path476"
         inkscape:connector-curvature="0" />
    </g>
    <g
       id="g478"
       transform="matrix(0.06961964,0,0,-0.06961964,-667.75857,616.01238)">
      <path
         d="m 16257.3,1853.18 c 0,0 10.9,28.12 31.9,22.04 l 10.8,-44.28 -42.7,22.24"
         style="fill:#b1b1b0;fill-opacity:1;fill-rule:nonzero;stroke:none"
         id="path480"
         inkscape:connector-curvature="0" />
    </g>
    <g
       id="g482"
       transform="matrix(0.06850804,0,0,-0.06850804,-667.75857,616.01238)">
      <path
         d="m 16300,2306.8 -56.1,-43.62 -375,562.17 56,43.61 375.1,-562.16"
         style="fill:#232221;fill-opacity:1;fill-rule:nonzero;stroke:none"
         id="path484"
         inkscape:connector-curvature="0" />
    </g>
    <g
       id="g486"
       transform="matrix(0.06711809,0,0,-0.06711809,-667.75857,616.01238)">
      <path
         d="m 16171,2851.58 v 0 c -4.5,6.68 -2.8,16.3 3.8,21.39 l 100.8,78.37 c 6.5,5.1 15.5,3.84 20,-2.84 v 0 c 4.4,-6.67 2.7,-16.29 -3.9,-21.39 l -100.7,-78.37 c -6.6,-5.1 -15.6,-3.78 -20,2.84"
         style="fill:#232221;fill-opacity:1;fill-rule:nonzero;stroke:none"
         id="path488"
         inkscape:connector-curvature="0" />
    </g>
    <g
       id="g490"
       transform="matrix(0.06800674,0,0,-0.06800674,-667.75857,616.01238)">
      <path
         d="m 16289.1,2604.13 -145.2,208.32 -46.8,-9.96 -1.9,13.85 54.9,11.67 149.9,-215.06 -10.9,-8.82"
         style="fill:#232221;fill-opacity:1;fill-rule:nonzero;stroke:none"
         id="path492"
         inkscape:connector-curvature="0" />
    </g>
    <g
       id="g494"
       transform="matrix(0.06826638,0,0,-0.06826638,-667.75857,616.01238)">
      <path
         d="m 15896.5,2024.54 c 0,0 28.1,-112.3 57.8,-115.09 29.6,-2.74 190.4,18.55 190.4,18.55 0,0 130,40.21 142.6,125.27 12.7,85.11 -390.8,-28.73 -390.8,-28.73"
         style="fill:#fab8ad;fill-opacity:1;fill-rule:nonzero;stroke:none"
         id="path496"
         inkscape:connector-curvature="0" />
    </g>
    <g
       id="g498"
       transform="matrix(0.0692457,0,0,-0.0692457,-667.75857,616.01238)">
      <path
         d="m 15856.9,2467.25 c 0,0 324.9,-125.32 384,-183.25 59.1,-57.98 8.5,-129.1 -47.1,-129.96 -55.5,-0.82 -394.6,129.55 -464.1,160.78 -69.5,31.18 -30.2,190.13 127.2,152.43"
         style="fill:#fab8ad;fill-opacity:1;fill-rule:nonzero;stroke:none"
         id="path500"
         inkscape:connector-curvature="0" />
    </g>
    <g
       id="g502"
       transform="matrix(0.06901357,0,0,-0.06901357,-667.75857,616.01238)">
      <path
         d="m 15855.4,2354.4 c 0,0 3.6,-1.38 10.1,-3.93 55.6,-21.78 322.1,-127.95 375.2,-179.99 59.3,-58.12 8.5,-129.48 -47.2,-130.35 -55.7,-0.82 -396,129.99 -465.7,161.28 -69.7,31.33 -30.4,190.82 127.6,152.99"
         style="fill:#fab8ad;fill-opacity:1;fill-rule:nonzero;stroke:none"
         id="path504"
         inkscape:connector-curvature="0" />
    </g>
    <g
       id="g506"
       transform="matrix(0.06842866,0,0,-0.06842866,-667.75857,616.01238)">
      <path
         d="m 15850.5,2227.56 c 0,0 -57.3,-25.57 -67.7,-108.11 -10.5,-82.59 89,-118.01 176,-111.88 234,16.5 341.2,55.11 341.2,55.11 l -449.5,164.88"
         style="fill:#fab8ad;fill-opacity:1;fill-rule:nonzero;stroke:none"
         id="path508"
         inkscape:connector-curvature="0" />
    </g>
    <g
       id="g510"
       transform="matrix(0.06792137,0,0,-0.06792137,-667.75857,616.01238)">
      <path
         d="m 16004.8,2384.84 c 91.7,-58.63 295.2,-149.22 295.2,-149.22 0,0 -224.3,99.05 -296.1,195.45 -2.1,-15.68 -0.4,-31.06 5.5,-43.84 -1.6,-0.72 -3.1,-1.61 -4.6,-2.39"
         style="fill:#f79c8a;fill-opacity:1;fill-rule:nonzero;stroke:none"
         id="path512"
         inkscape:connector-curvature="0" />
    </g>
    <g
       id="g514"
       transform="matrix(0.06821805,0,0,-0.06821805,-667.75857,616.01238)">
      <path
         d="m 15880,2266.54 c 2.7,-10.86 7.8,-20.53 15.2,-28.13 130.6,-52.6 262.7,-111.81 404.8,-111.81 -117.3,26.79 -284.4,59.89 -420,139.94"
         style="fill:#f79c8a;fill-opacity:1;fill-rule:nonzero;stroke:none"
         id="path516"
         inkscape:connector-curvature="0" />
    </g>
    <g
       id="g518"
       transform="matrix(0.06774322,0,0,-0.06774322,-667.75857,616.01238)">
      <path
         d="m 15988.8,2054.13 c 5.3,-3.12 20,-11.45 30.5,-13.95 97.9,0 184,19.32 280.7,44.21 -93.5,-12.66 -204,-38.48 -311.2,-30.26"
         style="fill:#f79c8a;fill-opacity:1;fill-rule:nonzero;stroke:none"
         id="path520"
         inkscape:connector-curvature="0" />
    </g>
    <g
       id="g522"
       transform="matrix(0.07838335,0,0,-0.07838335,-667.75857,616.01238)">
      <path
         d="m 15008.6,1976.38 c 0,0 802.5,-182.55 1140.9,-118.19 131.6,25.03 150.5,249.03 82.5,344.31 -40.1,56.12 -122.6,132.41 -231.9,169.04 -109.3,36.68 -896.6,-134.98 -976,-152.08 -79.3,-17.15 -174.4,-111.25 -15.5,-243.08"
         style="fill:#fab8ad;fill-opacity:1;fill-rule:nonzero;stroke:none"
         id="path524"
         inkscape:connector-curvature="0" />
    </g>
    <g
       id="g526"
       transform="matrix(0.0716086,0,0,-0.0716086,-667.75857,616.01238)">
      <path
         d="m 16186.2,2381.75 c 0,0 -123.4,-17.83 -186.8,-80.25 -63.4,-62.42 -187,-381.85 -203,-418.46 -18.1,-41.13 76.3,-40.59 103.6,-13.69 54.9,53.99 157.3,339.04 194.9,366.82 37.7,27.74 205.1,58.28 205.1,58.28 l -113.8,87.3"
         style="fill:#fab8ad;fill-opacity:1;fill-rule:nonzero;stroke:none"
         id="path528"
         inkscape:connector-curvature="0" />
    </g>
    <g
       id="g530"
       transform="matrix(0.07212048,0,0,-0.07212048,-667.75857,616.01238)">
      <path
         d="m 16187.1,2310.7 c 0,0 -122.6,-17.7 -185.6,-79.68 -62.9,-62.02 -165.6,-341.97 -188.7,-393.42 -23.2,-51.46 80.8,-38.7 109.6,-6.8 51.2,56.69 155.7,294.56 193.1,322.15 37.3,27.54 184.5,71.03 184.5,71.03 l -112.9,86.72"
         style="fill:#fab8ad;fill-opacity:1;fill-rule:nonzero;stroke:none"
         id="path532"
         inkscape:connector-curvature="0" />
    </g>
    <g
       id="g534"
       transform="matrix(0.07279358,0,0,-0.07279358,-667.75857,616.01238)">
      <path
         d="m 16194.2,2208.2 c 0,0 -120.7,2.43 -185.4,-40.9 -64.8,-43.32 -179.7,-264.7 -205.1,-304.73 -25.3,-40.08 77,-44.05 106.8,-21.23 52.9,40.52 167.5,226.13 205.5,244.06 37.9,17.98 184,33.78 184,33.78 l -105.8,89.02"
         style="fill:#fab8ad;fill-opacity:1;fill-rule:nonzero;stroke:none"
         id="path536"
         inkscape:connector-curvature="0" />
    </g>
    <g
       id="g538"
       transform="matrix(0.07330582,0,0,-0.07330582,-667.75857,616.01238)">
      <path
         d="m 16207.1,2164.81 c 0,0 -115.8,13.24 -162.8,-35.9 -34.9,-36.38 -156.9,-203.32 -179.2,-238.5 -22.2,-35.23 21,-69.73 47.2,-49.67 46.5,35.57 166.3,182.2 199.6,197.94 33.3,15.78 188.1,47.98 188.1,47.98 l -92.9,78.15"
         style="fill:#fab8ad;fill-opacity:1;fill-rule:nonzero;stroke:none"
         id="path540"
         inkscape:connector-curvature="0" />
    </g>
    <g
       id="g542"
       transform="matrix(0.07189188,0,0,-0.07189188,-667.75857,616.01238)">
      <path
         d="m 16300,2433.7 c 0,0 -107.7,26.89 -159.3,11.24 -36.1,-10.89 -85.5,-95.44 -85.5,-95.44 l 64.9,-0.64 179.9,84.84"
         style="fill:#fab8ad;fill-opacity:1;fill-rule:nonzero;stroke:none"
         id="path544"
         inkscape:connector-curvature="0" />
    </g>
    <g
       id="g546"
       transform="matrix(0.0740276,0,0,-0.0740276,-667.75857,616.01238)">
      <path
         d="m 15639.7,2292.49 319.5,-269.54 c 0,0 184.9,-12.81 234.5,67.58 49.6,80.39 106.3,114.66 75,152.35 -31.2,37.75 -313.3,132.72 -424.1,132.96 -110.8,0.24 -204.9,-83.35 -204.9,-83.35"
         style="fill:#fab8ad;fill-opacity:1;fill-rule:nonzero;stroke:none"
         id="path548"
         inkscape:connector-curvature="0" />
    </g>
    <g
       id="g550"
       transform="matrix(0.07488485,0,0,-0.07488485,-667.75857,616.01238)">
      <path
         d="m 16300,3956.11 -381.4,190.7 c -58.1,29.06 -128.6,0.75 -150.4,-60.45 v 0 c -18.4,-51.91 5,-109.43 54.5,-133.6 l 396.6,-193.38 80.7,196.73"
         style="fill:#b68642;fill-opacity:1;fill-rule:nonzero;stroke:none"
         id="path552"
         inkscape:connector-curvature="0" />
    </g>
    <g
       id="g554"
       transform="matrix(0.07471305,0,0,-0.07471305,-667.75857,616.01238)">
      <path
         d="m 16256.6,4005.61 43.4,-21.72 -87.9,-194.2 -51.2,24.97 95.7,190.95"
         style="fill:#f7b81b;fill-opacity:1;fill-rule:nonzero;stroke:none"
         id="path556"
         inkscape:connector-curvature="0" />
    </g>
    <g
       id="g558"
       transform="matrix(0.07427454,0,0,-0.07427454,-667.75857,616.01238)">
      <path
         d="m 16248,4081.57 52,-25.98 -96.5,-192.46 -52.8,25.6 97.3,192.84"
         style="fill:#f7b81b;fill-opacity:1;fill-rule:nonzero;stroke:none"
         id="path560"
         inkscape:connector-curvature="0" />
    </g>
    <g
       id="g562"
       transform="matrix(0.07374291,0,0,-0.07374291,-667.75857,616.01238)">
      <path
         d="m 16250.1,4168.54 49.9,-24.97 -97.8,-195.14 -49,23.87 96.9,196.24"
         style="fill:#f7b81b;fill-opacity:1;fill-rule:nonzero;stroke:none"
         id="path564"
         inkscape:connector-curvature="0" />
    </g>
    <g
       id="g566"
       transform="matrix(0.07338554,0,0,-0.07338554,-667.75857,616.01238)">
      <path
         d="m 16113.3,4183.69 c 14.4,24.57 47.2,32.16 73.2,16.97 26,-15.24 35.4,-47.54 21.1,-72.11 -14.4,-24.51 -47.2,-32.11 -73.2,-16.92 -26,15.19 -35.4,47.54 -21.1,72.06 z m -59.8,35 c -32.6,-55.77 -11.1,-128.98 47.9,-163.49 59,-34.57 133.4,-17.36 166,38.4 32.6,55.77 11.2,128.93 -47.9,163.5 -59.1,34.51 -133.3,17.35 -166,-38.41"
         style="fill:#f7b81b;fill-opacity:1;fill-rule:nonzero;stroke:none"
         id="path568"
         inkscape:connector-curvature="0" />
    </g>
    <g
       id="g570"
       transform="matrix(0.06623403,0,0,-0.06623403,-667.75857,616.01238)">
      <path
         d="m 15677.9,4472.82 431.2,215.6 c 65.7,32.87 145.3,0.86 170,-68.33 v 0 c 20.9,-58.7 -5.7,-123.73 -61.7,-151.05 l -448.3,-218.65 -91.2,222.43"
         style="fill:#b68642;fill-opacity:1;fill-rule:nonzero;stroke:none"
         id="path572"
         inkscape:connector-curvature="0" />
    </g>
    <g
       id="g574"
       transform="matrix(0.0645153,0,0,-0.0645153,-667.75857,616.01238)">
      <path
         d="m 16189.1,4638.78 -50.2,-25.16 101.8,-224.9 59.3,28.93 -110.9,221.13"
         style="fill:#f7b81b;fill-opacity:1;fill-rule:nonzero;stroke:none"
         id="path576"
         inkscape:connector-curvature="0" />
    </g>
    <g
       id="g578"
       transform="matrix(0.06499649,0,0,-0.06499649,-667.75857,616.01238)">
      <path
         d="m 16188.8,4664.18 -59.4,-29.68 110.2,-219.93 60.4,29.25 -111.2,220.36"
         style="fill:#f7b81b;fill-opacity:1;fill-rule:nonzero;stroke:none"
         id="path580"
         inkscape:connector-curvature="0" />
    </g>
    <g
       id="g582"
       transform="matrix(0.06551154,0,0,-0.06551154,-667.75857,616.01238)">
      <path
         d="m 16191,4692.29 -56.2,-28.11 110.1,-219.65 55.1,26.87 -109,220.89"
         style="fill:#f7b81b;fill-opacity:1;fill-rule:nonzero;stroke:none"
         id="path584"
         inkscape:connector-curvature="0" />
    </g>
    <g
       id="g586"
       transform="matrix(0.06646157,0,0,-0.06646157,-667.75857,616.01238)">
      <path
         d="m 16174.7,4539.98 c -28.7,-16.77 -65,-8.39 -80.8,18.68 -15.9,27.13 -5.4,62.8 23.3,79.62 28.7,16.78 64.9,8.39 80.8,-18.73 15.8,-27.07 5.3,-62.8 -23.3,-79.57 z m -94,160.62 c -65.2,-38.16 -88.8,-118.95 -52.8,-180.52 36,-61.58 118,-80.58 183.2,-42.41 65.2,38.11 88.9,118.95 52.9,180.52 -36,61.57 -118.1,80.52 -183.3,42.41"
         style="fill:#f7b81b;fill-opacity:1;fill-rule:nonzero;stroke:none"
         id="path588"
         inkscape:connector-curvature="0" />
    </g>
    <g
       id="g590"
       transform="matrix(0.08224838,0,0,-0.08224838,-667.75857,616.01238)">
      <path
         d="M 16300,938.258 H 9608.19 V 0 H 16300 v 938.258"
         style="fill:#d0a372;fill-opacity:1;fill-rule:nonzero;stroke:none"
         id="path592"
         inkscape:connector-curvature="0" />
    </g>
    <g
       id="g594"
       transform="matrix(0.08327073,0,0,-0.08327073,-667.75857,616.01238)">
      <path
         d="m 9427.56,861.243 h 6734.94 c 75.9,0 137.5,61.556 137.5,137.475 v 257.872 c 0,75.97 -61.6,137.52 -137.5,137.52 H 9427.56 c -75.92,0 -137.47,-61.55 -137.47,-137.52 V 998.718 c 0,-75.919 61.55,-137.475 137.47,-137.475"
         style="fill:#b68754;fill-opacity:1;fill-rule:nonzero;stroke:none"
         id="path596"
         inkscape:connector-curvature="0" />
    </g>
    <g
       id="g598"
       transform="matrix(0.08395336,0,0,-0.08395336,-667.75857,616.01238)">
      <path
         d="m 9218.38,1012.62 h 6945.22 c 75.3,0 136.4,61.05 136.4,136.35 v 275.95 c 0,75.3 -61.1,136.36 -136.4,136.36 H 9218.38 c -75.3,0 -136.36,-61.06 -136.36,-136.36 v -275.95 c 0,-75.3 61.06,-136.35 136.36,-136.35"
         style="fill:#d0a372;fill-opacity:1;fill-rule:nonzero;stroke:none"
         id="path600"
         inkscape:connector-curvature="0" />
    </g>
    <g
       id="g602"
       transform="matrix(0.05953937,0,0,-0.05953937,-667.75857,616.01238)">
      <path
         d="m 16300,2891.99 v -690.57 h -2668.8 v 690.57 H 16300"
         style="fill:#ef3149;fill-opacity:1;fill-rule:nonzero;stroke:none"
         id="path604"
         inkscape:connector-curvature="0" />
    </g>
    <g
       id="g606"
       transform="matrix(0.0591499,0,0,-0.0591499,-667.75857,616.01238)">
      <path
         d="m 16103.1,2323.27 h -2127 c -108.7,0 -196.8,88.15 -196.8,196.88 v 283.47 H 16300 v -283.47 c 0,-158.17 -88.2,-196.88 -196.9,-196.88"
         style="fill:#f03752;fill-opacity:1;fill-rule:nonzero;stroke:none"
         id="path608"
         inkscape:connector-curvature="0" />
    </g>
    <g
       id="g610"
       transform="matrix(0.05894317,0,0,-0.05894317,-667.75857,616.01238)">
      <path
         d="m 16283.1,2489.06 c -12.5,-114.98 -102.3,-99.29 -179,-99.29 h -2079 c -76.7,0 -139.2,62.48 -139.2,139.21 v 250.29 c 0,0 2313.4,0 2345.9,0 32.4,0 68.2,-135.56 51.3,-290.21"
         style="fill:#f25673;fill-opacity:1;fill-rule:nonzero;stroke:none"
         id="path612"
         inkscape:connector-curvature="0" />
    </g>
    <g
       id="g614"
       transform="matrix(0.05953937,0,0,-0.05953937,-667.75857,616.01238)">
      <path
         d="m 16300,2790.14 v 101.85 H 13631.2 V 2790.14 H 16300"
         style="fill:#d62d41;fill-opacity:1;fill-rule:nonzero;stroke:none"
         id="path616"
         inkscape:connector-curvature="0" />
    </g>
    <g
       id="g618"
       transform="matrix(0.05439834,0,0,-0.05439834,-667.75857,616.01238)">
      <path
         d="m 16300,2526.2 v 527.63 H 15231.1 V 2526.2 H 16300"
         style="fill:#e9e8e7;fill-opacity:1;fill-rule:nonzero;stroke:none"
         id="path620"
         inkscape:connector-curvature="0" />
    </g>
    <g
       id="g622"
       transform="matrix(0.05953937,0,0,-0.05953937,-667.75857,616.01238)">
      <path
         d="m 16300,3362.33 v -470.34 h -2668.8 v 470.34 H 16300"
         style="fill:#edb549;fill-opacity:1;fill-rule:nonzero;stroke:none"
         id="path624"
         inkscape:connector-curvature="0" />
    </g>
    <g
       id="g626"
       transform="matrix(0.05934463,0,0,-0.05934463,-667.75857,616.01238)">
      <path
         d="m 16112.7,2954.99 h -2196 c -103.4,0 -187.2,83.81 -187.2,187.25 v 177.62 H 16300 v -177.62 c 0,-103.44 -83.8,-187.25 -187.3,-187.25"
         style="fill:#edbb5a;fill-opacity:1;fill-rule:nonzero;stroke:none"
         id="path628"
         inkscape:connector-curvature="0" />
    </g>
    <g
       id="g630"
       transform="matrix(0.0591499,0,0,-0.0591499,-667.75857,616.01238)">
      <path
         d="m 16300,3197.97 c 0,-47.05 -60.2,-85.28 -134.2,-85.28 h -2203.3 c -74,0 -134.2,38.23 -134.2,85.28 v 79.15 H 16300 v -79.15"
         style="fill:#f2ca7b;fill-opacity:1;fill-rule:nonzero;stroke:none"
         id="path632"
         inkscape:connector-curvature="0" />
    </g>
    <g
       id="g634"
       transform="matrix(0.05953937,0,0,-0.05953937,-667.75857,616.01238)">
      <path
         d="m 16300,3293 v 69.33 H 13631.2 V 3293 H 16300"
         style="fill:#e5a631;fill-opacity:1;fill-rule:nonzero;stroke:none"
         id="path636"
         inkscape:connector-curvature="0" />
    </g>
    <g
       id="g638"
       transform="matrix(0.05791835,0,0,-0.05791835,-667.75857,616.01238)">
      <path
         d="m 16300,4166.33 v -709.9 h -2743.5 v 709.9 H 16300"
         style="fill:#7bbfeb;fill-opacity:1;fill-rule:nonzero;stroke:none"
         id="path640"
         inkscape:connector-curvature="0" />
    </g>
    <g
       id="g642"
       transform="matrix(0.05752889,0,0,-0.05752889,-667.75857,616.01238)">
      <path
         d="m 16097.6,3590.28 h -2186.9 c -111.8,0 -202.5,90.57 -202.5,202.36 v 291.47 H 16300 v -291.47 c 0,-162.56 -90.6,-202.36 -202.4,-202.36"
         style="fill:#82c4ed;fill-opacity:1;fill-rule:nonzero;stroke:none"
         id="path644"
         inkscape:connector-curvature="0" />
    </g>
    <g
       id="g646"
       transform="matrix(0.05732216,0,0,-0.05732216,-667.75857,616.01238)">
      <path
         d="m 16282.6,3765.26 c -12.9,-118.17 -105.1,-102.04 -184.1,-102.04 h -2137.7 c -79,0 -143.2,64.19 -143.2,143.08 v 257.38 c 0,0 2378.9,0 2412.2,0 33.4,0 70.2,-139.4 52.8,-298.42"
         style="fill:#9ed4f3;fill-opacity:1;fill-rule:nonzero;stroke:none"
         id="path648"
         inkscape:connector-curvature="0" />
    </g>
    <g
       id="g650"
       transform="matrix(0.05791835,0,0,-0.05791835,-667.75857,616.01238)">
      <path
         d="m 16300,4061.69 v 104.64 H 13556.5 V 4061.69 H 16300"
         style="fill:#66a7d9;fill-opacity:1;fill-rule:nonzero;stroke:none"
         id="path652"
         inkscape:connector-curvature="0" />
    </g>
    <g
       id="g654"
       transform="matrix(0.07503795,0,0,-0.07503795,-667.75857,616.01238)">
      <path
         d="m 13655.5,1780.02 c -11,67.41 -58.9,170.65 -100.4,224.95 153.5,-75.55 331.1,-86.88 502.2,-77.62 173.6,9.41 346.4,38.46 520.2,35.64 156.4,-2.49 317.4,-52.28 446.7,-137.98 191.3,70.47 405.3,79.03 610.5,71.46 227.7,-8.42 467.8,-9.17 665.3,106.67 -28.3,-74.37 -56.7,-148.75 -85,-223.12 h -2559.5"
         style="fill:#e9e8e7;fill-opacity:1;fill-rule:nonzero;stroke:none"
         id="path656"
         inkscape:connector-curvature="0" />
    </g>
    <g
       id="g658"
       transform="matrix(0.07542919,0,0,-0.07542919,-667.75857,616.01238)">
      <path
         d="M 13499.7,1803.57 H 16300 v -65.85 h -2800.3 v 65.85"
         style="fill:#ef3149;fill-opacity:1;fill-rule:nonzero;stroke:none"
         id="path660"
         inkscape:connector-curvature="0" />
    </g>
    <g
       id="g662"
       transform="matrix(0.06916491,0,0,-0.06916491,-667.75857,616.01238)">
      <path
         d="M 14722.4,1966.92 H 16300 v -71.82 h -1577.6 v 71.82"
         style="fill:#b62939;fill-opacity:1;fill-rule:nonzero;stroke:none"
         id="path664"
         inkscape:connector-curvature="0" />
    </g>
    <text
       xml:space="preserve"
       style="font-style:normal;font-variant:normal;font-weight:normal;font-stretch:normal;font-size:40.69662476px;line-height:1.25;font-family:'Estrangelo Edessa';-inkscape-font-specification:'Estrangelo Edessa, Normal';font-variant-ligatures:normal;font-variant-caps:normal;font-variant-numeric:normal;font-feature-settings:normal;text-align:start;letter-spacing:0px;word-spacing:0px;writing-mode:lr-tb;text-anchor:start;fill:#ffffff;fill-opacity:1;stroke:none;stroke-width:1.01741076"
       x="-461.4447"
       y="-183.38681"
       id="text2131"><tspan
         sodipodi:role="line"
         x="-461.4447"
         y="-183.38681"
         style="font-style:normal;font-variant:normal;font-weight:normal;font-stretch:normal;font-size:40.69662476px;font-family:'Estrangelo Edessa';-inkscape-font-specification:'Estrangelo Edessa, Normal';font-variant-ligatures:normal;font-variant-caps:normal;font-variant-numeric:normal;font-feature-settings:normal;text-align:start;writing-mode:lr-tb;text-anchor:start;fill:#ffffff;stroke-width:1.01741076"
         id="tspan2151">SMK Pangasari memiliki integritas yang tinggi, kami</tspan><tspan
         sodipodi:role="line"
         x="-461.4447"
         y="-132.51602"
         style="font-style:normal;font-variant:normal;font-weight:normal;font-stretch:normal;font-size:40.69662476px;font-family:'Estrangelo Edessa';-inkscape-font-specification:'Estrangelo Edessa, Normal';font-variant-ligatures:normal;font-variant-caps:normal;font-variant-numeric:normal;font-feature-settings:normal;text-align:start;writing-mode:lr-tb;text-anchor:start;fill:#ffffff;stroke-width:1.01741076"
         id="tspan2197">ingin kelak setiap murid memiliki kreatifitas dan</tspan><tspan
         sodipodi:role="line"
         x="-461.4447"
         y="-81.645248"
         style="font-style:normal;font-variant:normal;font-weight:normal;font-stretch:normal;font-size:40.69662476px;font-family:'Estrangelo Edessa';-inkscape-font-specification:'Estrangelo Edessa, Normal';font-variant-ligatures:normal;font-variant-caps:normal;font-variant-numeric:normal;font-feature-settings:normal;text-align:start;writing-mode:lr-tb;text-anchor:start;fill:#ffffff;stroke-width:1.01741076"
         id="tspan2199">pemahaman yang baik serta ke-efektifannya dalam </tspan><tspan
         sodipodi:role="line"
         x="-461.4447"
         y="-30.774467"
         style="font-style:normal;font-variant:normal;font-weight:normal;font-stretch:normal;font-size:40.69662476px;font-family:'Estrangelo Edessa';-inkscape-font-specification:'Estrangelo Edessa, Normal';font-variant-ligatures:normal;font-variant-caps:normal;font-variant-numeric:normal;font-feature-settings:normal;text-align:start;writing-mode:lr-tb;text-anchor:start;fill:#ffffff;stroke-width:1.01741076"
         id="tspan2201">berkomunikasi.</tspan><tspan
         sodipodi:role="line"
         x="-461.4447"
         y="20.096313"
         style="font-style:normal;font-variant:normal;font-weight:normal;font-stretch:normal;font-size:40.69662476px;font-family:'Estrangelo Edessa';-inkscape-font-specification:'Estrangelo Edessa, Normal';font-variant-ligatures:normal;font-variant-caps:normal;font-variant-numeric:normal;font-feature-settings:normal;text-align:start;writing-mode:lr-tb;text-anchor:start;fill:#ffffff;stroke-width:1.01741076"
         id="tspan2207" /><tspan
         sodipodi:role="line"
         x="-461.4447"
         y="70.967094"
         style="font-style:normal;font-variant:normal;font-weight:normal;font-stretch:normal;font-size:40.69662476px;font-family:'Estrangelo Edessa';-inkscape-font-specification:'Estrangelo Edessa, Normal';font-variant-ligatures:normal;font-variant-caps:normal;font-variant-numeric:normal;font-feature-settings:normal;text-align:start;writing-mode:lr-tb;text-anchor:start;fill:#ffffff;stroke-width:1.01741076"
         id="tspan2211">Dan juga, setelah kelulusan nanti kami ingin setiap</tspan><tspan
         sodipodi:role="line"
         x="-461.4447"
         y="121.83788"
         style="font-style:normal;font-variant:normal;font-weight:normal;font-stretch:normal;font-size:40.69662476px;font-family:'Estrangelo Edessa';-inkscape-font-specification:'Estrangelo Edessa, Normal';font-variant-ligatures:normal;font-variant-caps:normal;font-variant-numeric:normal;font-feature-settings:normal;text-align:start;writing-mode:lr-tb;text-anchor:start;fill:#ffffff;stroke-width:1.01741076"
         id="tspan2213">murid sudah memiliki tujuan yang jelas atau </tspan><tspan
         sodipodi:role="line"
         x="-461.4447"
         y="172.70865"
         style="font-style:normal;font-variant:normal;font-weight:normal;font-stretch:normal;font-size:40.69662476px;font-family:'Estrangelo Edessa';-inkscape-font-specification:'Estrangelo Edessa, Normal';font-variant-ligatures:normal;font-variant-caps:normal;font-variant-numeric:normal;font-feature-settings:normal;text-align:start;writing-mode:lr-tb;text-anchor:start;fill:#ffffff;stroke-width:1.01741076"
         id="tspan2215">perencanaan-nya dalam menyusun masa depan.</tspan></text>
  </g>
</svg>
